<svg width="40" height="41" viewBox="0 0 40 41" fill="none" xmlns="http://www.w3.org/2000/svg">
<path d="M27.1382 12.5777C32.3599 12.921 35.9065 17.0878 38.3332 19.7578C37.9215 13.8444 33.6482 6.92439 27.6382 6.84272C25.0615 6.80605 22.3815 9.0861 19.9998 11.9928C17.6198 9.0861 14.9382 6.80605 12.3615 6.84272C6.34987 6.92772 2.07817 13.8428 1.6665 19.7578C4.09317 17.0911 7.64152 12.9244 12.8615 12.5777C14.785 12.5642 16.6451 13.265 18.0815 14.5443C17.5398 15.3227 17.0215 16.1094 16.5365 16.8777C15.7226 16.6098 14.8392 16.6471 14.0507 16.9826C13.2623 17.3181 12.6228 17.9288 12.2515 18.701C11.9916 19.3701 11.9482 20.1039 12.1276 20.7988C12.307 21.4938 12.7002 22.1149 13.2515 22.5744L13.0365 22.9711C12.7632 23.4711 12.4299 24.126 12.0799 24.8344C11.4519 24.7229 10.8047 24.8226 10.2393 25.1178C9.674 25.413 9.22233 25.8871 8.95486 26.466C8.73081 27.038 8.69618 27.6668 8.85609 28.26C9.01599 28.8531 9.36197 29.3792 9.84318 29.761C9.74151 30.026 9.65986 30.2611 9.60819 30.4277C9.21319 31.7511 8.9032 33.4277 9.79654 33.501C10.6899 33.5744 11.1299 32.636 11.4132 31.371C11.4665 31.1394 11.5332 30.8527 11.6199 30.5227C11.7383 30.5366 11.8573 30.5438 11.9765 30.5444C12.5359 30.561 13.0877 30.4115 13.5623 30.1149C14.0369 29.8183 14.413 29.3878 14.6432 28.8777C14.8755 28.2803 14.9024 27.6224 14.7195 27.008C14.5366 26.3936 14.1544 25.8576 13.6332 25.4844C13.9665 24.8444 14.3515 24.1644 14.7998 23.4394C15.6251 23.7388 16.5322 23.7214 17.3454 23.3904C18.1585 23.0594 18.8199 22.4384 19.2015 21.6477C19.4396 21.0443 19.4986 20.3849 19.3715 19.7488C19.2444 19.1127 18.9365 18.5267 18.4848 18.0611C18.9682 17.4561 19.4765 16.8661 20.0049 16.3077C20.5332 16.8644 21.0415 17.4561 21.5248 18.0611C21.0732 18.5267 20.7653 19.1127 20.6382 19.7488C20.5111 20.3849 20.5701 21.0443 20.8082 21.6477C21.1898 22.4384 21.8512 23.0594 22.6643 23.3904C23.4775 23.7214 24.3845 23.7388 25.2098 23.4394C25.6548 24.1644 26.0432 24.8444 26.3765 25.4844C25.8553 25.8576 25.4731 26.3936 25.2902 27.008C25.1073 27.6224 25.1342 28.2803 25.3665 28.8777C25.5967 29.3878 25.9728 29.8183 26.4474 30.1149C26.922 30.4115 27.4738 30.561 28.0332 30.5444C28.1524 30.5438 28.2714 30.5366 28.3898 30.5227C28.4765 30.8561 28.5432 31.1394 28.5965 31.371C28.8849 32.636 29.3199 33.5677 30.2132 33.501C31.1065 33.4344 30.7948 31.7527 30.4015 30.4277C30.3498 30.2527 30.2682 30.0243 30.1665 29.761C30.6477 29.3792 30.9937 28.8531 31.1536 28.26C31.3135 27.6668 31.2789 27.038 31.0548 26.466C30.7876 25.8869 30.336 25.4126 29.7705 25.1174C29.2051 24.8221 28.5578 24.7226 27.9298 24.8344C27.5798 24.126 27.2465 23.4761 26.9732 22.9711L26.7582 22.5744C27.3095 22.1149 27.7026 21.4938 27.8821 20.7988C28.0615 20.1039 28.0181 19.3701 27.7582 18.701C27.3869 17.9288 26.7474 17.3181 25.959 16.9826C25.1706 16.6471 24.2871 16.6098 23.4732 16.8777C22.9882 16.106 22.4732 15.3193 21.9282 14.5443C23.362 13.2673 25.2181 12.5667 27.1382 12.5777ZM31.8265 10.4977C32.0913 10.4841 32.3506 10.5761 32.5475 10.7537C32.7444 10.9312 32.8627 11.1796 32.8765 11.4444C32.8901 11.7091 32.798 11.9685 32.6205 12.1654C32.443 12.3623 32.1946 12.4806 31.9299 12.4944C31.6651 12.508 31.4058 12.4159 31.2089 12.2384C31.012 12.0609 30.8937 11.8125 30.8799 11.5477C30.8662 11.283 30.9583 11.0237 31.1358 10.8268C31.3133 10.6299 31.5618 10.5115 31.8265 10.4977ZM29.0582 8.63939C29.3671 8.62351 29.6698 8.73104 29.8995 8.93826C30.1292 9.14548 30.2672 9.43547 30.2832 9.74443C30.2991 10.0534 30.1916 10.356 29.9844 10.5857C29.7772 10.8154 29.4872 10.9535 29.1782 10.9694C28.8692 10.9853 28.5666 10.8778 28.3369 10.6705C28.1072 10.4633 27.9691 10.1733 27.9532 9.86437C27.9373 9.5554 28.0448 9.25283 28.252 9.0231C28.4592 8.79338 28.7492 8.65534 29.0582 8.63939ZM9.11986 11.5477C9.10607 11.8125 8.98773 12.0609 8.79083 12.2384C8.59394 12.4159 8.33461 12.508 8.06985 12.4944C7.80511 12.4806 7.55666 12.3623 7.37914 12.1654C7.20162 11.9685 7.10958 11.7091 7.1232 11.4444C7.13699 11.1796 7.25534 10.9312 7.45223 10.7537C7.64912 10.5761 7.90845 10.4841 8.17321 10.4977C8.30489 10.5045 8.43388 10.5373 8.55285 10.5941C8.67181 10.651 8.77838 10.7309 8.86636 10.8291C8.95435 10.9273 9.02203 11.042 9.06554 11.1665C9.10905 11.2909 9.12751 11.4228 9.11986 11.5544V11.5477ZM12.0449 9.86437C12.0289 10.1733 11.8909 10.4633 11.6612 10.6705C11.4314 10.8778 11.1288 10.9853 10.8198 10.9694C10.5109 10.9535 10.2209 10.8154 10.0137 10.5857C9.80645 10.356 9.69897 10.0534 9.71485 9.74443C9.7308 9.43547 9.86878 9.14548 10.0985 8.93826C10.3282 8.73104 10.6309 8.62351 10.9398 8.63939C11.093 8.64708 11.2431 8.68484 11.3816 8.75058C11.5201 8.81632 11.6443 8.90872 11.7471 9.02249C11.8499 9.13626 11.9292 9.26917 11.9806 9.41362C12.032 9.55808 12.0527 9.71125 12.0449 9.86437ZM15.1982 10.1977C15.1844 10.4625 15.0661 10.7109 14.8692 10.8884C14.6723 11.066 14.4129 11.158 14.1482 11.1444C13.8834 11.1306 13.635 11.0123 13.4575 10.8154C13.28 10.6185 13.1879 10.3591 13.2015 10.0944C13.2153 9.82963 13.3337 9.58117 13.5306 9.40365C13.7275 9.22614 13.9867 9.1341 14.2515 9.14771C14.3827 9.15433 14.5114 9.18677 14.6301 9.24313C14.7488 9.29949 14.8552 9.37867 14.9433 9.47618C15.0313 9.5737 15.0993 9.68767 15.1434 9.81147C15.1874 9.93528 15.2049 10.0665 15.1982 10.1977ZM13.1065 28.2211C12.9394 28.5212 12.6613 28.7437 12.3319 28.8409C12.0025 28.9381 11.6481 28.9022 11.3448 28.741C11.0185 28.6346 10.7469 28.4045 10.5883 28.1C10.4297 27.7956 10.3967 27.4411 10.4965 27.1127C10.6636 26.8126 10.9418 26.5901 11.2711 26.4929C11.6005 26.3957 11.9549 26.4315 12.2582 26.5927C12.5845 26.6991 12.8562 26.9293 13.0148 27.2338C13.1734 27.5382 13.2063 27.8927 13.1065 28.2211ZM27.7432 26.5927C28.0464 26.4315 28.4009 26.3957 28.7303 26.4929C29.0597 26.5901 29.3377 26.8126 29.5048 27.1127C29.6046 27.4411 29.5717 27.7956 29.4131 28.1C29.2545 28.4045 28.9829 28.6346 28.6565 28.741C28.3532 28.9022 27.9989 28.9381 27.6695 28.8409C27.3401 28.7437 27.062 28.5212 26.8949 28.2211C26.797 27.8938 26.8307 27.5411 26.9888 27.2382C27.1469 26.9354 27.417 26.7062 27.7415 26.5994L27.7432 26.5927ZM25.8515 11.1378C25.5868 11.1514 25.3274 11.0592 25.1306 10.8817C24.9337 10.7042 24.8153 10.4558 24.8015 10.191C24.7879 9.92626 24.88 9.66697 25.0575 9.47008C25.235 9.27319 25.4834 9.15489 25.7482 9.1411C26.0129 9.12749 26.2723 9.21953 26.4692 9.39704C26.666 9.57456 26.7844 9.82301 26.7982 10.0878C26.8058 10.2194 26.7874 10.3512 26.7439 10.4756C26.7004 10.6001 26.6327 10.7147 26.5447 10.813C26.4567 10.9112 26.3502 10.9911 26.2312 11.0479C26.1123 11.1048 25.9832 11.1376 25.8515 11.1444V11.1378Z" fill="#482B11"/>
</svg>
