<svg width="40" height="41" viewBox="0 0 40 41" fill="none" xmlns="http://www.w3.org/2000/svg">
<path d="M27.1382 12.8035C32.3599 13.1469 35.9065 17.3136 38.3332 19.9836C37.9215 14.0703 33.6482 7.15025 27.6382 7.06858C25.0615 7.03192 22.3815 9.31196 19.9998 12.2186C17.6198 9.31196 14.9382 7.03192 12.3615 7.06858C6.34987 7.15358 2.07817 14.0686 1.6665 19.9836C4.09317 17.317 7.64152 13.1502 12.8615 12.8035C14.785 12.7901 16.6451 13.4909 18.0815 14.7702C17.5398 15.5485 17.0215 16.3352 16.5365 17.1036C15.7226 16.8357 14.8392 16.873 14.0507 17.2085C13.2623 17.5439 12.6228 18.1547 12.2515 18.9269C11.9916 19.5959 11.9482 20.3297 12.1276 21.0247C12.307 21.7196 12.7002 22.3407 13.2515 22.8003L13.0365 23.1969C12.7632 23.6969 12.4299 24.3519 12.0799 25.0602C11.4519 24.9488 10.8047 25.0484 10.2393 25.3436C9.674 25.6388 9.22233 26.1129 8.95486 26.6919C8.73081 27.2639 8.69618 27.8927 8.85609 28.4858C9.01599 29.0789 9.36197 29.605 9.84318 29.9869C9.74151 30.2519 9.65986 30.4869 9.60819 30.6536C9.21319 31.9769 8.9032 33.6536 9.79654 33.7269C10.6899 33.8002 11.1299 32.8619 11.4132 31.5969C11.4665 31.3652 11.5332 31.0786 11.6199 30.7486C11.7383 30.7624 11.8573 30.7697 11.9765 30.7703C12.5359 30.7869 13.0877 30.6374 13.5623 30.3408C14.0369 30.0442 14.413 29.6137 14.6432 29.1036C14.8755 28.5061 14.9024 27.8483 14.7195 27.2339C14.5366 26.6195 14.1544 26.0834 13.6332 25.7102C13.9665 25.0702 14.3515 24.3903 14.7998 23.6653C15.6251 23.9647 16.5322 23.9472 17.3454 23.6162C18.1585 23.2852 18.8199 22.6643 19.2015 21.8736C19.4396 21.2701 19.4986 20.6108 19.3715 19.9747C19.2444 19.3385 18.9365 18.7526 18.4848 18.2869C18.9682 17.6819 19.4765 17.0919 20.0049 16.5336C20.5332 17.0903 21.0415 17.6819 21.5248 18.2869C21.0732 18.7526 20.7653 19.3385 20.6382 19.9747C20.5111 20.6108 20.5701 21.2701 20.8082 21.8736C21.1898 22.6643 21.8512 23.2852 22.6643 23.6162C23.4775 23.9472 24.3845 23.9647 25.2098 23.6653C25.6548 24.3903 26.0432 25.0702 26.3765 25.7102C25.8553 26.0834 25.4731 26.6195 25.2902 27.2339C25.1073 27.8483 25.1342 28.5061 25.3665 29.1036C25.5967 29.6137 25.9728 30.0442 26.4474 30.3408C26.922 30.6374 27.4738 30.7869 28.0332 30.7703C28.1524 30.7697 28.2714 30.7624 28.3898 30.7486C28.4765 31.0819 28.5432 31.3652 28.5965 31.5969C28.8849 32.8619 29.3199 33.7936 30.2132 33.7269C31.1065 33.6602 30.7948 31.9786 30.4015 30.6536C30.3498 30.4786 30.2682 30.2502 30.1665 29.9869C30.6477 29.605 30.9937 29.0789 31.1536 28.4858C31.3135 27.8927 31.2789 27.2639 31.0548 26.6919C30.7876 26.1127 30.336 25.6384 29.7705 25.3432C29.2051 25.048 28.5578 24.9485 27.9298 25.0602C27.5798 24.3519 27.2465 23.7019 26.9732 23.1969L26.7582 22.8003C27.3095 22.3407 27.7026 21.7196 27.8821 21.0247C28.0615 20.3297 28.0181 19.5959 27.7582 18.9269C27.3869 18.1547 26.7474 17.5439 25.959 17.2085C25.1706 16.873 24.2871 16.8357 23.4732 17.1036C22.9882 16.3319 22.4732 15.5452 21.9282 14.7702C23.362 13.4932 25.2181 12.7926 27.1382 12.8035ZM31.8265 10.7236C32.0913 10.71 32.3506 10.802 32.5475 10.9795C32.7444 11.157 32.8627 11.4055 32.8765 11.6702C32.8901 11.935 32.798 12.1944 32.6205 12.3913C32.443 12.5881 32.1946 12.7064 31.9299 12.7202C31.6651 12.7338 31.4058 12.6418 31.2089 12.4643C31.012 12.2868 30.8937 12.0383 30.8799 11.7736C30.8662 11.5088 30.9583 11.2495 31.1358 11.0527C31.3133 10.8558 31.5618 10.7374 31.8265 10.7236ZM29.0582 8.86525C29.3671 8.84937 29.6698 8.9569 29.8995 9.16412C30.1292 9.37134 30.2672 9.66133 30.2832 9.97029C30.2991 10.2793 30.1916 10.5818 29.9844 10.8116C29.7772 11.0413 29.4872 11.1793 29.1782 11.1953C28.8692 11.2112 28.5666 11.1036 28.3369 10.8964C28.1072 10.6892 27.9691 10.3992 27.9532 10.0902C27.9373 9.78126 28.0448 9.47869 28.252 9.24896C28.4592 9.01924 28.7492 8.8812 29.0582 8.86525ZM9.11986 11.7736C9.10607 12.0383 8.98773 12.2868 8.79083 12.4643C8.59394 12.6418 8.33461 12.7338 8.06985 12.7202C7.80511 12.7064 7.55666 12.5881 7.37914 12.3913C7.20162 12.1944 7.10958 11.935 7.1232 11.6702C7.13699 11.4055 7.25534 11.157 7.45223 10.9795C7.64912 10.802 7.90845 10.71 8.17321 10.7236C8.30489 10.7304 8.43388 10.7631 8.55285 10.82C8.67181 10.8769 8.77838 10.9568 8.86636 11.055C8.95435 11.1532 9.02203 11.2678 9.06554 11.3923C9.10905 11.5168 9.12751 11.6487 9.11986 11.7803V11.7736ZM12.0449 10.0902C12.0289 10.3992 11.8909 10.6892 11.6612 10.8964C11.4314 11.1036 11.1288 11.2112 10.8198 11.1953C10.5109 11.1793 10.2209 11.0413 10.0137 10.8116C9.80645 10.5818 9.69897 10.2793 9.71485 9.97029C9.7308 9.66133 9.86878 9.37134 10.0985 9.16412C10.3282 8.9569 10.6309 8.84937 10.9398 8.86525C11.093 8.87294 11.2431 8.9107 11.3816 8.97644C11.5201 9.04218 11.6443 9.13458 11.7471 9.24835C11.8499 9.36212 11.9292 9.49503 11.9806 9.63948C12.032 9.78394 12.0527 9.93711 12.0449 10.0902ZM15.1982 10.4236C15.1844 10.6883 15.0661 10.9368 14.8692 11.1143C14.6723 11.2918 14.4129 11.3839 14.1482 11.3702C13.8834 11.3564 13.635 11.2382 13.4575 11.0413C13.28 10.8444 13.1879 10.585 13.2015 10.3202C13.2153 10.0555 13.3337 9.80703 13.5306 9.62952C13.7275 9.452 13.9867 9.35996 14.2515 9.37357C14.3827 9.38019 14.5114 9.41263 14.6301 9.46899C14.7488 9.52535 14.8552 9.60453 14.9433 9.70205C15.0313 9.79956 15.0993 9.91353 15.1434 10.0373C15.1874 10.1611 15.2049 10.2924 15.1982 10.4236ZM13.1065 28.447C12.9394 28.747 12.6613 28.9695 12.3319 29.0668C12.0025 29.164 11.6481 29.1281 11.3448 28.9669C11.0185 28.8604 10.7469 28.6303 10.5883 28.3259C10.4297 28.0215 10.3967 27.667 10.4965 27.3386C10.6636 27.0385 10.9418 26.816 11.2711 26.7187C11.6005 26.6215 11.9549 26.6573 12.2582 26.8185C12.5845 26.925 12.8562 27.1552 13.0148 27.4596C13.1734 27.764 13.2063 28.1185 13.1065 28.447ZM27.7432 26.8185C28.0464 26.6573 28.4009 26.6215 28.7303 26.7187C29.0597 26.816 29.3377 27.0385 29.5048 27.3386C29.6046 27.667 29.5717 28.0215 29.4131 28.3259C29.2545 28.6303 28.9829 28.8604 28.6565 28.9669C28.3532 29.1281 27.9989 29.164 27.6695 29.0668C27.3401 28.9695 27.062 28.747 26.8949 28.447C26.797 28.1196 26.8307 27.7669 26.9888 27.4641C27.1469 27.1612 27.417 26.9321 27.7415 26.8253L27.7432 26.8185ZM25.8515 11.3636C25.5868 11.3772 25.3274 11.2851 25.1306 11.1076C24.9337 10.9301 24.8153 10.6816 24.8015 10.4169C24.7879 10.1521 24.88 9.89284 25.0575 9.69594C25.235 9.49905 25.4834 9.38075 25.7482 9.36696C26.0129 9.35335 26.2723 9.44539 26.4692 9.6229C26.666 9.80042 26.7844 10.0489 26.7982 10.3136C26.8058 10.4453 26.7874 10.577 26.7439 10.7015C26.7004 10.826 26.6327 10.9406 26.5447 11.0388C26.4567 11.137 26.3502 11.2169 26.2312 11.2738C26.1123 11.3307 25.9832 11.3634 25.8515 11.3702V11.3636Z" fill="white"/>
</svg>
