<svg width="44" height="44" viewBox="0 0 44 44" fill="none" xmlns="http://www.w3.org/2000/svg">
<path d="M31.9821 15.9711C33.0356 14.749 33.7559 13.2757 34.0736 11.6937C34.3913 10.1118 34.2955 8.47456 33.7955 6.94043C33.2955 5.4063 32.4082 4.02715 31.2194 2.93617C30.0306 1.84519 28.5804 1.07931 27.0091 0.712587C25.4377 0.345861 23.7984 0.390681 22.2495 0.842707C20.7005 1.29473 19.2944 2.13871 18.1669 3.29302C17.0395 4.44732 16.2289 5.8729 15.8134 7.43206C15.398 8.99121 15.3918 10.6311 15.7954 12.1934C14.5732 11.1399 13.0999 10.4196 11.5179 10.1019C9.93597 9.78428 8.29885 9.88009 6.76472 10.3801C5.23059 10.8801 3.85135 11.7674 2.76037 12.9562C1.66939 14.145 0.903528 15.5952 0.536802 17.1665C0.170076 18.7378 0.214923 20.3772 0.66695 21.9261C1.11898 23.4751 1.96286 24.8811 3.11716 26.0086C4.27147 27.136 5.69712 27.9467 7.25627 28.3621C8.81543 28.7775 10.4554 28.7837 12.0176 28.3801C10.9642 29.6023 10.2438 31.0756 9.92612 32.6576C9.60846 34.2395 9.70426 35.8767 10.2043 37.4109C10.7043 38.945 11.5916 40.3242 12.7804 41.4152C13.9692 42.5062 15.4194 43.2721 16.9907 43.6388C18.562 44.0055 20.2014 43.9607 21.7503 43.5087C23.2993 43.0566 24.7054 42.2127 25.8328 41.0583C26.9603 39.904 27.7709 38.4785 28.1863 36.9193C28.6018 35.3602 28.608 33.7201 28.2044 32.1579C29.4266 33.2113 30.8999 33.9318 32.4818 34.2494C34.0638 34.5671 35.7009 34.4713 37.2351 33.9713C38.7692 33.4713 40.1484 32.584 41.2394 31.3952C42.3304 30.2063 43.0963 28.7562 43.463 27.1849C43.8297 25.6136 43.7849 23.9742 43.3329 22.4252C42.8809 20.8763 42.0369 19.4701 40.8826 18.3427C39.7283 17.2152 38.3026 16.4046 36.7435 15.9892C35.1843 15.5738 33.5444 15.5675 31.9821 15.9711ZM37.1366 29.5713C36.3633 30.0527 35.4793 30.3272 34.5693 30.3687C33.6594 30.4101 32.7542 30.217 31.9403 29.8079C31.1265 29.3988 30.4315 28.7874 29.922 28.0323C29.4125 27.2773 29.1055 26.404 29.0305 25.4963L27.1943 25.0677L26.266 29.0456L22.2881 28.1172L21.8596 29.9534C22.947 30.6072 23.7654 31.6279 24.1671 32.8315C24.5688 34.0351 24.5274 35.3426 24.0505 36.5185C23.5737 37.6943 22.6926 38.6612 21.566 39.245C20.4394 39.8289 19.1414 39.9913 17.9057 39.7029C16.67 39.4145 15.5779 38.6943 14.8261 37.6721C14.0744 36.6499 13.7123 35.3928 13.8052 34.1273C13.8981 32.8618 14.4398 31.6711 15.3328 30.7696C16.2258 29.8682 17.4114 29.3153 18.676 29.2104L19.1045 27.3741L15.1267 26.4458L16.055 22.4679L14.2188 22.0394C13.5644 23.1291 12.5423 23.9493 11.3368 24.3522C10.1312 24.755 8.82137 24.7141 7.64333 24.2367C6.46529 23.7592 5.4965 22.8768 4.91151 21.7483C4.32653 20.6198 4.16381 19.3195 4.45271 18.0816C4.7416 16.8438 5.46305 15.7498 6.48714 14.9968C7.51123 14.2439 8.77062 13.8815 10.0383 13.9749C11.306 14.0683 12.4986 14.6113 13.4013 15.5062C14.304 16.4011 14.8574 17.589 14.9618 18.8558L16.798 19.2843L17.7264 15.3065L21.7042 16.2349L22.1328 14.3986C21.0431 13.7443 20.2229 12.7222 19.82 11.5166C19.4172 10.311 19.4582 9.00122 19.9356 7.82318C20.413 6.64514 21.2954 5.67627 22.4239 5.09129C23.5524 4.5063 24.8528 4.34367 26.0906 4.63257C27.3285 4.92146 28.4224 5.64296 29.1754 6.66705C29.9283 7.69114 30.2908 8.95048 30.1974 10.2181C30.104 11.4858 29.5609 12.6784 28.666 13.5811C27.7711 14.4838 26.5832 15.0372 25.3164 15.1416L24.8878 16.9778L28.8657 17.9063L27.9373 21.884L29.7736 22.3127C30.1882 21.623 30.7538 21.0364 31.4279 20.5971C32.102 20.1577 32.867 19.877 33.6653 19.7762C34.4636 19.6753 35.2744 19.757 36.0366 20.0149C36.7988 20.2729 37.4925 20.7004 38.0655 21.2653C38.6385 21.8301 39.0759 22.5177 39.3447 23.2761C39.6135 24.0346 39.7066 24.8441 39.6171 25.6437C39.5277 26.4434 39.258 27.2123 38.8283 27.8926C38.3986 28.573 37.8202 29.1469 37.1366 29.5713Z" fill="#482B11"/>
</svg>
