<svg width="56" height="56" viewBox="0 0 56 56" fill="none" xmlns="http://www.w3.org/2000/svg">
<g clip-path="url(#clip0_20_460)">
<path d="M37.9821 22.197C39.0356 20.9748 39.7559 19.5015 40.0736 17.9196C40.3913 16.3376 40.2955 14.7004 39.7955 13.1663C39.2955 11.6321 38.4082 10.253 37.2194 9.162C36.0306 8.07102 34.5804 7.30514 33.0091 6.93842C31.4377 6.57169 29.7984 6.61651 28.2495 7.06854C26.7005 7.52056 25.2944 8.36454 24.1669 9.51885C23.0395 10.6732 22.2289 12.0987 21.8134 13.6579C21.398 15.217 21.3918 16.857 21.7954 18.4192C20.5732 17.3657 19.0999 16.6454 17.5179 16.3278C15.936 16.0101 14.2988 16.1059 12.7647 16.6059C11.2306 17.1059 9.85135 17.9932 8.76037 19.182C7.66939 20.3708 6.90353 21.821 6.5368 23.3923C6.17008 24.9636 6.21492 26.603 6.66695 28.1519C7.11898 29.7009 7.96286 31.107 9.11716 32.2344C10.2715 33.3619 11.6971 34.1725 13.2563 34.5879C14.8154 35.0034 16.4554 35.0096 18.0176 34.6059C16.9642 35.8281 16.2438 37.3014 15.9261 38.8834C15.6085 40.4654 15.7043 42.1026 16.2043 43.6367C16.7043 45.1708 17.5916 46.55 18.7804 47.641C19.9692 48.732 21.4194 49.4979 22.9907 49.8646C24.562 50.2313 26.2014 50.1865 27.7503 49.7345C29.2993 49.2825 30.7054 48.4385 31.8328 47.2842C32.9603 46.1299 33.7709 44.7043 34.1863 43.1451C34.6018 41.586 34.608 39.946 34.2044 38.3837C35.4266 39.4372 36.8999 40.1576 38.4818 40.4753C40.0638 40.7929 41.7009 40.6971 43.2351 40.1971C44.7692 39.6971 46.1484 38.8098 47.2394 37.621C48.3304 36.4322 49.0963 34.982 49.463 33.4107C49.8297 31.8394 49.7849 30.2 49.3329 28.6511C48.8809 27.1021 48.0369 25.696 46.8826 24.5685C45.7283 23.4411 44.3026 22.6305 42.7435 22.215C41.1843 21.7996 39.5444 21.7934 37.9821 22.197ZM43.1366 35.7971C42.3633 36.2785 41.4793 36.5531 40.5693 36.5945C39.6594 36.6359 38.7542 36.4428 37.9403 36.0337C37.1265 35.6246 36.4315 35.0132 35.922 34.2582C35.4125 33.5032 35.1055 32.6299 35.0305 31.7221L33.1943 31.2935L32.266 35.2714L28.2881 34.343L27.8596 36.1792C28.947 36.833 29.7654 37.8537 30.1671 39.0573C30.5688 40.261 30.5274 41.5684 30.0505 42.7443C29.5737 43.9202 28.6926 44.887 27.566 45.4709C26.4394 46.0547 25.1414 46.2171 23.9057 45.9287C22.67 45.6403 21.5779 44.9202 20.8261 43.898C20.0744 42.8757 19.7123 41.6186 19.8052 40.3531C19.8981 39.0877 20.4398 37.8969 21.3328 36.9955C22.2258 36.094 23.4114 35.5411 24.676 35.4363L25.1045 33.5999L21.1267 32.6716L22.055 28.6937L20.2188 28.2652C19.5644 29.3549 18.5423 30.1751 17.3368 30.578C16.1312 30.9808 14.8214 30.9399 13.6433 30.4625C12.4653 29.9851 11.4965 29.1026 10.9115 27.9741C10.3265 26.8456 10.1638 25.5453 10.4527 24.3075C10.7416 23.0696 11.4631 21.9756 12.4871 21.2227C13.5112 20.4697 14.7706 20.1073 16.0383 20.2007C17.306 20.2941 18.4986 20.8371 19.4013 21.732C20.304 22.6269 20.8574 23.8148 20.9618 25.0816L22.798 25.5102L23.7264 21.5323L27.7042 22.4607L28.1328 20.6245C27.0431 19.9701 26.2229 18.948 25.82 17.7424C25.4172 16.5369 25.4582 15.2271 25.9356 14.049C26.413 12.871 27.2954 11.9021 28.4239 11.3171C29.5524 10.7321 30.8528 10.5695 32.0906 10.8584C33.3285 11.1473 34.4224 11.8688 35.1754 12.8929C35.9283 13.917 36.2908 15.1763 36.1974 16.444C36.104 17.7116 35.5609 18.9043 34.666 19.807C33.7711 20.7097 32.5832 21.263 31.3164 21.3674L30.8878 23.2037L34.8657 24.1321L33.9373 28.1099L35.7736 28.5385C36.1882 27.8488 36.7538 27.2622 37.4279 26.8229C38.102 26.3835 38.867 26.1028 39.6653 26.002C40.4636 25.9012 41.2744 25.9828 42.0366 26.2408C42.7988 26.4987 43.4925 26.9262 44.0655 27.4911C44.6385 28.056 45.0759 28.7435 45.3447 29.502C45.6135 30.2604 45.7066 31.0699 45.6171 31.8695C45.5277 32.6692 45.258 33.4382 44.8283 34.1185C44.3986 34.7988 43.8202 35.3728 43.1366 35.7971Z" fill="white"/>
</g>
<defs>
<clipPath id="clip0_20_460">
<rect width="40" height="40" fill="white" transform="translate(0.455811 21.9731) rotate(-31.8631)"/>
</clipPath>
</defs>
</svg>
