<svg width="81" height="96" viewBox="0 0 81 96" fill="none" xmlns="http://www.w3.org/2000/svg">
<mask id="mask0_25_611" style="mask-type:luminance" maskUnits="userSpaceOnUse" x="59" y="43" width="4" height="4">
<path fill-rule="evenodd" clip-rule="evenodd" d="M60.6182 43.6728C61.4803 43.6728 62.1791 44.3723 62.1791 45.2351C62.1791 46.0979 61.4803 46.7974 60.6182 46.7974C59.7562 46.7974 59.0574 46.0979 59.0574 45.2351C59.0574 44.3723 59.7562 43.6728 60.6182 43.6728ZM60.6182 44.2466C61.1637 44.2466 61.6059 44.6891 61.6059 45.2351C61.6059 45.7811 61.1637 46.2236 60.6182 46.2236C60.0727 46.2236 59.6306 45.7811 59.6306 45.2351C59.6306 44.6891 60.0727 44.2466 60.6182 44.2466Z" fill="white"/>
</mask>
<g mask="url(#mask0_25_611)">
<path fill-rule="evenodd" clip-rule="evenodd" d="M60.6182 43.6728C61.4803 43.6728 62.1791 44.3723 62.1791 45.2351C62.1791 46.0979 61.4803 46.7974 60.6182 46.7974C59.7562 46.7974 59.0574 46.0979 59.0574 45.2351C59.0574 44.3723 59.7562 43.6728 60.6182 43.6728ZM60.6182 44.2466C61.1637 44.2466 61.6059 44.6891 61.6059 45.2351C61.6059 45.7811 61.1637 46.2236 60.6182 46.2236C60.0727 46.2236 59.6306 45.7811 59.6306 45.2351C59.6306 44.6891 60.0727 44.2466 60.6182 44.2466Z" fill="#222222"/>
</g>
<path fill-rule="evenodd" clip-rule="evenodd" d="M34.2963 17.5669C34.9481 16.8974 33.9571 16.6534 34.9444 15.8037C35.0167 15.7414 35.0709 15.6954 35.1655 15.5994C35.1877 15.5769 35.2548 15.5041 35.274 15.4834C35.289 15.4672 35.3166 15.4355 35.3288 15.4222C35.3303 15.4205 35.9527 14.0594 34.2347 13.9458L34.1809 13.1518C34.4866 13.0781 34.6686 13.0776 34.8648 12.8804C35.3983 12.3441 35.2081 11.7799 35.0731 11.4185C34.9119 10.9868 34.9649 10.8735 35.0041 10.4139C34.4527 10.1245 34.819 10.6219 34.3058 9.98923C34.0906 9.72395 34.2705 9.68948 33.3245 9.77786C32.5037 11.7722 33.1822 12.6031 32.7342 13.1716C32.5534 13.401 31.6248 13.8259 32.9854 14.7842C33.3411 15.0347 33.1059 14.7874 33.3229 15.0683L33.4455 15.2612C34.0243 16.0624 33.7645 15.4909 33.9251 16.5652C34.1067 17.7801 34.0316 17.4715 34.2963 17.5669Z" fill="#F67206"/>
<path fill-rule="evenodd" clip-rule="evenodd" d="M62.0796 33.2116L62.0801 32.0072C63.4408 31.7066 63.4556 33.332 62.0796 33.2116ZM59.8816 35.4113L62.0377 35.4654L62.0409 34.1672C62.3093 34.4453 62.3681 34.6848 62.5786 35.0228C62.7261 35.2598 62.9556 35.5843 63.1936 35.7871L64.7443 35.1059C64.3886 34.7622 63.8163 34.2768 63.5737 33.6266C65.3225 32.9499 66.2588 28.5632 59.6592 29.5245L59.8816 35.4113Z" fill="#222222"/>
<path fill-rule="evenodd" clip-rule="evenodd" d="M54.2736 14.659L54.2744 13.0808C56.0573 12.687 56.0766 14.8168 54.2736 14.659ZM51.3936 17.5413L54.2187 17.6121L54.2229 15.9111C54.5746 16.2755 54.6517 16.5893 54.9275 17.0322C55.1208 17.3428 55.4214 17.7679 55.7333 18.0337L57.7652 17.1412C57.2991 16.6908 56.5493 16.0547 56.2313 15.2028C58.5229 14.3161 59.7497 8.56817 51.1022 9.8277L51.3936 17.5413Z" fill="#F67206"/>
<path fill-rule="evenodd" clip-rule="evenodd" d="M58.5178 35.2589L58.6593 29.5416L56.8343 29.5359L57.0183 34.5273C55.7157 34.6752 55.8755 33.7633 55.879 32.6281C55.8822 31.6098 55.9338 30.5373 55.9216 29.5363L53.4302 29.5304C53.4001 30.8931 53.5863 33.6196 54.1522 34.5705C54.894 35.8169 57.11 35.8792 58.5178 35.2589Z" fill="#222222"/>
<path fill-rule="evenodd" clip-rule="evenodd" d="M50.4015 33.763C49.7995 35.2574 48.8148 33.8356 49.1446 32.6204C49.4628 31.448 51.0243 32.217 50.4015 33.763ZM48.9747 29.5523C45.7117 30.6829 47.2843 36.915 50.58 35.619C53.5264 34.4604 52.6684 28.2724 48.9747 29.5523Z" fill="#222222"/>
<path fill-rule="evenodd" clip-rule="evenodd" d="M63.4821 15.2127C62.6713 17.2256 61.345 15.3106 61.7892 13.6738C62.2178 12.0948 64.321 13.1304 63.4821 15.2127ZM61.5604 9.54139C57.1656 11.0641 59.2835 19.4581 63.7225 17.7126C67.6909 16.1521 66.5354 7.8176 61.5604 9.54139Z" fill="#F67206"/>
<path fill-rule="evenodd" clip-rule="evenodd" d="M41.1113 32.0329L42.2922 31.9859L42.4399 35.5542L44.28 35.5423L44.4623 32.0286L45.6413 32.0433L45.7434 29.6196L41.0245 29.6206L41.1113 32.0329Z" fill="#222222"/>
<path fill-rule="evenodd" clip-rule="evenodd" d="M67.3808 34.3956C66.7469 34.6376 66.837 34.4286 66.3127 34.4822L66.5422 35.5525C67.6788 35.9075 69.0156 35.5387 69.1178 34.4145C69.2162 33.3331 67.438 31.9058 69.3983 32.0151L69.2805 29.6238C67.868 29.3514 65.9848 29.3674 65.7452 30.9728C65.4325 33.0675 67.6886 32.9298 67.3808 34.3956Z" fill="#222222"/>
<mask id="mask1_25_611" style="mask-type:luminance" maskUnits="userSpaceOnUse" x="29" y="41" width="39" height="42">
<path fill-rule="evenodd" clip-rule="evenodd" d="M40.938 76.5064L41.0257 76.4089C40.6846 75.8214 40.3073 75.181 40.1584 74.9616C39.8596 74.5212 39.9854 73.6405 39.9383 73.3102C39.8911 72.9799 39.7023 72.9327 39.3721 72.4137C39.0418 71.8947 39.1177 70.8978 39.1326 70.4819C39.1474 70.066 39.192 69.7392 38.9544 69.145C38.7167 68.5509 38.0985 67.1867 37.5715 66.5543C37.0445 65.9219 36.6492 64.8679 36.557 64.3277C36.4648 63.7875 37.0412 62.465 37.1248 61.8799C37.2084 61.2947 37.4661 60.8062 37.7985 60.6092C38.1309 60.4123 38.2047 60.2891 38.2294 59.8337C38.254 59.3782 38.3279 59.4521 38.3525 58.5781C38.3771 57.7041 38.331 57.9329 38.2914 57.6554C38.2517 57.3778 37.439 56.3669 37.4984 56.2281C37.5579 56.0894 37.9147 56.0696 37.9147 56.0696C37.9147 56.0696 37.9147 55.8119 37.7363 55.4947C37.5579 55.1775 36.9434 53.7701 36.8047 53.2151C36.6659 52.6601 36.2893 52.3429 35.6351 51.4905C34.9809 50.6381 33.7611 49.0454 33.7611 49.0454C33.7611 49.0454 34.2398 47.632 34.2626 47.2673C34.2854 46.9026 34.1258 46.6518 34.2398 46.3099C34.3538 45.9679 34.6274 45.1929 34.6274 44.8737C34.6274 44.5546 34.0119 44.2354 33.6699 43.9163C33.328 43.5971 32.9404 43.6883 32.5757 43.6883C32.211 43.6883 31.2307 43.9847 30.6836 43.7795C30.1365 43.5743 29.2703 41.7962 29.2703 41.7962L35.1045 42.1653L38.358 42.7965C38.358 42.7965 38.4066 43.2336 38.358 43.8891C38.3095 44.5447 38.0424 45.3216 38.0424 45.3216C38.0424 45.3216 38.2123 45.4673 38.528 45.7344C38.8436 46.0015 38.965 46.1229 39.5963 46.4385C40.2276 46.7542 42.1457 47.0455 42.1457 47.0455L40.7617 49.4007L52.8686 50.9205C52.8686 50.9205 52.9609 50.6744 52.9609 50.4283C52.9609 50.1823 52.7456 50.1054 52.7456 50.1054C52.7456 50.1054 52.7302 49.8901 52.8379 49.7363C52.9455 49.5825 53.2838 49.1672 53.2838 49.1672H53.7914L54.0989 48.9827L54.2066 48.6751L53.5299 48.7058C53.5299 48.7058 53.5914 48.1676 53.5914 47.9061C53.5914 47.6446 53.653 47.2294 53.8067 47.0141C53.9605 46.7988 54.545 46.4297 54.545 46.4297L54.8833 46.3374C54.8833 46.3374 55.1601 46.1529 55.2524 46.1529C55.3447 46.1529 57.1594 46.076 57.2825 45.9991C57.4055 45.9222 57.4824 45.753 57.6054 45.6915C57.7285 45.63 61.9117 45.7991 62.3423 45.7991C62.7729 45.7991 63.6803 45.5223 64.4031 45.2916C65.1259 45.0609 65.2644 45.2609 65.8949 45.3531C66.5254 45.4455 67.0637 46.1375 67.0637 46.1375C67.0637 46.1375 66.5562 46.5681 66.4332 46.6296C66.3102 46.6911 64.5877 47.8753 64.5877 47.8753C64.5877 47.8753 64.4954 48.2906 64.48 48.4905C64.4646 48.6905 64.4185 48.9058 64.2801 49.1211C64.1417 49.3364 63.2619 50.5275 63.2619 50.5275C63.2619 50.5275 62.6464 51.5183 62.4812 51.7585C62.3161 51.9987 62.4512 52.389 62.4512 52.389C62.4512 52.389 62.3461 52.5241 62.241 52.6442C62.1359 52.7643 62.211 52.9895 62.226 53.3648C62.241 53.7401 62.2861 53.6801 62.4962 54.0704C62.7064 54.4607 62.7451 54.5394 62.6451 54.9394C62.545 55.3395 62.245 56.2146 62.245 56.2146L62.7201 56.4897C62.7201 56.4897 62.7451 56.6397 62.7201 56.7897C62.695 56.9397 62.8451 57.1898 63.0701 57.3148C63.2951 57.4399 63.5452 57.6399 63.5452 57.6399C63.5452 57.6399 63.4702 60.0652 63.4702 60.3403C63.4702 60.6153 63.6702 60.8654 63.6702 60.8654C63.6702 60.8654 63.6452 61.4405 63.6202 61.6405C63.5952 61.8406 63.2201 63.3408 63.2201 63.3408C63.2201 63.3408 59.368 65.9297 58.971 66.2322C58.5739 66.5347 58.0634 67.5556 58.0634 67.5556C58.0634 67.5556 58.1013 67.9149 58.2714 68.2552C58.4416 68.5955 58.5739 69.3707 58.8197 70.0513C59.0655 70.7319 58.7441 71.4126 58.4983 71.5638C58.2525 71.7151 56.8156 72.4335 56.8156 72.4335C56.8156 72.4335 56.532 72.4902 56.5509 72.9251C56.5648 73.2433 56.5237 73.7967 56.5006 74.0705L56.5375 74.0753C56.5375 74.0753 55.9876 75.7828 55.7561 76.3327C55.5246 76.8826 55.0615 77.9534 53.6723 79.1401C52.2831 80.3267 51.1254 81.3396 51.1254 81.3396L50.344 80.9923L50.2572 81.3686L49.389 82.0342L47.6235 81.4554C47.6235 81.4554 46.3212 82.2839 45.6266 82.5552C44.932 82.8264 44.8451 82.9819 44.3242 82.8264C43.8032 82.6709 43.7454 82.6709 43.6585 82.2947C43.5717 81.9185 43.3691 81.658 43.3691 81.658L42.6745 81.1949L43.3112 80.5582C42.6112 78.971 41.8131 77.6386 40.938 76.5064Z" fill="white"/>
</mask>
<g mask="url(#mask1_25_611)">
<path fill-rule="evenodd" clip-rule="evenodd" d="M40.938 76.5064L41.0257 76.4089C40.6846 75.8214 40.3073 75.181 40.1584 74.9616C39.8596 74.5212 39.9854 73.6405 39.9383 73.3102C39.8911 72.9799 39.7023 72.9327 39.3721 72.4137C39.0418 71.8947 39.1177 70.8978 39.1326 70.4819C39.1474 70.066 39.192 69.7392 38.9544 69.145C38.7167 68.5509 38.0985 67.1867 37.5715 66.5543C37.0445 65.9219 36.6492 64.8679 36.557 64.3277C36.4648 63.7875 37.0412 62.465 37.1248 61.8799C37.2084 61.2947 37.4661 60.8062 37.7985 60.6092C38.1309 60.4123 38.2047 60.2891 38.2294 59.8337C38.254 59.3782 38.3279 59.4521 38.3525 58.5781C38.3771 57.7041 38.331 57.9329 38.2914 57.6554C38.2517 57.3778 37.439 56.3669 37.4984 56.2281C37.5579 56.0894 37.9147 56.0696 37.9147 56.0696C37.9147 56.0696 37.9147 55.8119 37.7363 55.4947C37.5579 55.1775 36.9434 53.7701 36.8047 53.2151C36.6659 52.6601 36.2893 52.3429 35.6351 51.4905C34.9809 50.6381 33.7611 49.0454 33.7611 49.0454C33.7611 49.0454 34.2398 47.632 34.2626 47.2673C34.2854 46.9026 34.1258 46.6518 34.2398 46.3099C34.3538 45.9679 34.6274 45.1929 34.6274 44.8737C34.6274 44.5546 34.0119 44.2354 33.6699 43.9163C33.328 43.5971 32.9404 43.6883 32.5757 43.6883C32.211 43.6883 31.2307 43.9847 30.6836 43.7795C30.1365 43.5743 29.2703 41.7962 29.2703 41.7962L35.1045 42.1653L38.358 42.7965C38.358 42.7965 38.4066 43.2336 38.358 43.8891C38.3095 44.5447 38.0424 45.3216 38.0424 45.3216C38.0424 45.3216 38.2123 45.4673 38.528 45.7344C38.8436 46.0015 38.965 46.1229 39.5963 46.4385C40.2276 46.7542 42.1457 47.0455 42.1457 47.0455L40.7617 49.4007L52.8686 50.9205C52.8686 50.9205 52.9609 50.6744 52.9609 50.4283C52.9609 50.1823 52.7456 50.1054 52.7456 50.1054C52.7456 50.1054 52.7302 49.8901 52.8379 49.7363C52.9455 49.5825 53.2838 49.1672 53.2838 49.1672H53.7914L54.0989 48.9827L54.2066 48.6751L53.5299 48.7058C53.5299 48.7058 53.5914 48.1676 53.5914 47.9061C53.5914 47.6446 53.653 47.2294 53.8067 47.0141C53.9605 46.7988 54.545 46.4297 54.545 46.4297L54.8833 46.3374C54.8833 46.3374 55.1601 46.1529 55.2524 46.1529C55.3447 46.1529 57.1594 46.076 57.2825 45.9991C57.4055 45.9222 57.4824 45.753 57.6054 45.6915C57.7285 45.63 61.9117 45.7991 62.3423 45.7991C62.7729 45.7991 63.6803 45.5223 64.4031 45.2916C65.1259 45.0609 65.2644 45.2609 65.8949 45.3531C66.5254 45.4455 67.0637 46.1375 67.0637 46.1375C67.0637 46.1375 66.5562 46.5681 66.4332 46.6296C66.3102 46.6911 64.5877 47.8753 64.5877 47.8753C64.5877 47.8753 64.4954 48.2906 64.48 48.4905C64.4646 48.6905 64.4185 48.9058 64.2801 49.1211C64.1417 49.3364 63.2619 50.5275 63.2619 50.5275C63.2619 50.5275 62.6464 51.5183 62.4812 51.7585C62.3161 51.9987 62.4512 52.389 62.4512 52.389C62.4512 52.389 62.3461 52.5241 62.241 52.6442C62.1359 52.7643 62.211 52.9895 62.226 53.3648C62.241 53.7401 62.2861 53.6801 62.4962 54.0704C62.7064 54.4607 62.7451 54.5394 62.6451 54.9394C62.545 55.3395 62.245 56.2146 62.245 56.2146L62.7201 56.4897C62.7201 56.4897 62.7451 56.6397 62.7201 56.7897C62.695 56.9397 62.8451 57.1898 63.0701 57.3148C63.2951 57.4399 63.5452 57.6399 63.5452 57.6399C63.5452 57.6399 63.4702 60.0652 63.4702 60.3403C63.4702 60.6153 63.6702 60.8654 63.6702 60.8654C63.6702 60.8654 63.6452 61.4405 63.6202 61.6405C63.5952 61.8406 63.2201 63.3408 63.2201 63.3408C63.2201 63.3408 59.368 65.9297 58.971 66.2322C58.5739 66.5347 58.0634 67.5556 58.0634 67.5556C58.0634 67.5556 58.1013 67.9149 58.2714 68.2552C58.4416 68.5955 58.5739 69.3707 58.8197 70.0513C59.0655 70.7319 58.7441 71.4126 58.4983 71.5638C58.2525 71.7151 56.8156 72.4335 56.8156 72.4335C56.8156 72.4335 56.532 72.4902 56.5509 72.9251C56.5648 73.2433 56.5237 73.7967 56.5006 74.0705L56.5375 74.0753C56.5375 74.0753 55.9876 75.7828 55.7561 76.3327C55.5246 76.8826 55.0615 77.9534 53.6723 79.1401C52.2831 80.3267 51.1254 81.3396 51.1254 81.3396L50.344 80.9923L50.2572 81.3686L49.389 82.0342L47.6235 81.4554C47.6235 81.4554 46.3212 82.2839 45.6266 82.5552C44.932 82.8264 44.8451 82.9819 44.3242 82.8264C43.8032 82.6709 43.7454 82.6709 43.6585 82.2947C43.5717 81.9185 43.3691 81.658 43.3691 81.658L42.6745 81.1949L43.3112 80.5582C42.6112 78.971 41.8131 77.6386 40.938 76.5064Z" fill="#222222"/>
</g>
<mask id="mask2_25_611" style="mask-type:luminance" maskUnits="userSpaceOnUse" x="8" y="10" width="27" height="34">
<path fill-rule="evenodd" clip-rule="evenodd" d="M12.7211 39.6238C12.7211 39.6238 12.3021 38.7391 11.7433 38.2735C11.1846 37.8079 10.5793 37.5751 10.5793 37.5751L10.3465 36.8767C10.3465 36.8767 10.0154 37.0654 9.74456 36.8487C9.47375 36.6321 9.14875 36.3883 9.14875 35.955C9.14875 35.5217 9.39248 34.8988 9.39248 34.8988C9.39248 34.8988 8.74253 34.8175 8.87793 34.2759C9.01334 33.7343 9.66332 33.0572 9.69041 32.5697C9.69178 32.5449 9.69269 32.5184 9.69312 32.4904C9.70135 31.9686 9.55496 30.9296 9.55496 30.6469C9.55496 30.349 9.66332 29.2116 9.66332 29.2116C9.66332 29.2116 9.36539 26.7742 9.79869 25.9346C10.232 25.0951 11.0966 25.0217 11.6382 24.1975C12.1798 23.3733 12.6509 22.5726 12.8157 22.2664C12.9805 21.9603 12.7215 21.2302 12.7215 21.2302L12.7686 20.5708C12.7686 20.5708 13.3338 20.3589 14.0403 20.2647C14.7468 20.1705 14.7232 19.8879 15.3591 19.6524C15.9949 19.4169 16.0655 18.993 16.5601 19.205C17.0547 19.4169 17.0311 19.6524 17.5257 19.7937C18.0202 19.935 18.2086 19.8408 18.2086 19.8408C18.2086 19.8408 18.5724 18.3562 18.3295 18.0324C18.0866 17.7086 17.601 17.0071 17.628 16.4405C17.655 15.8739 18.2485 14.0392 18.5723 13.5266C18.8961 13.0139 18.8961 12.5283 18.8961 12.5283C18.8961 12.5283 19.1119 12.0157 19.4088 12.0696C19.7055 12.1236 19.8944 12.5283 19.8944 12.5283C19.8944 12.5283 20.5689 12.2585 21.1895 12.4204C21.81 12.5823 22.4306 12.6093 22.7004 12.6362C22.9702 12.6632 23.1051 12.5823 23.267 12.3125C23.4289 12.0426 23.5969 11.65 24.3523 11.542C25.1078 11.4341 26.268 10.7326 27.5091 10.6247C28.7502 10.5168 30.558 10.2739 30.7199 10.2739C30.8818 10.2739 32.4197 9.97715 32.4467 10.3549C32.4737 10.7326 32.5006 11.4341 32.4737 11.677C32.4467 11.9198 32.5276 12.4054 32.4467 12.6213C32.3657 12.8371 31.961 13.134 31.961 13.134C31.961 13.134 31.3135 13.5117 31.6103 13.8624C31.9071 14.2132 32.4197 14.7258 32.8514 15.3464C33.2831 15.9669 33.2831 16.1828 33.3371 16.3716C33.391 16.5605 33.9576 18.9618 33.9307 19.9332C33.9037 20.9045 34.2274 21.2552 33.9846 21.8488C33.7418 22.4424 32.8784 23.09 31.988 23.7645C31.0976 24.439 28.3793 24.594 28.3284 25.0009C28.2775 25.4078 32.0412 32.0705 32.0412 32.0705L34.8692 34.4495L34.9047 38.0199L32.4573 41.998C32.4573 41.998 29.8218 41.9244 28.6564 41.7615C27.491 41.5986 27.2272 42.0693 26.1497 42.3552C25.0723 42.641 24.2807 43.1468 24.0389 43.2787C23.797 43.4106 23.5331 43.3886 22.7855 43.3227C22.0379 43.2567 21.6202 43.0368 21.0704 42.9928C20.5207 42.9489 19.8391 42.9489 19.5312 43.1028C19.2234 43.2567 18.3879 43.9823 18.3879 43.9823C18.3879 43.9823 17.7502 44.0483 17.2664 43.6745C16.7827 43.3007 15.8372 42.8609 15.4414 42.4431C15.0456 42.0253 14.5618 41.8715 14.21 41.7175C13.8582 41.5636 12.9347 41.1458 12.9347 41.1458L12.7211 39.6238Z" fill="white"/>
</mask>
<g mask="url(#mask2_25_611)">
<path fill-rule="evenodd" clip-rule="evenodd" d="M12.7211 39.6238C12.7211 39.6238 12.3021 38.7391 11.7433 38.2735C11.1846 37.8079 10.5793 37.5751 10.5793 37.5751L10.3465 36.8767C10.3465 36.8767 10.0154 37.0654 9.74456 36.8487C9.47375 36.6321 9.14875 36.3883 9.14875 35.955C9.14875 35.5217 9.39248 34.8988 9.39248 34.8988C9.39248 34.8988 8.74253 34.8175 8.87793 34.2759C9.01334 33.7343 9.66332 33.0572 9.69041 32.5697C9.69178 32.5449 9.69269 32.5184 9.69312 32.4904C9.70135 31.9686 9.55496 30.9296 9.55496 30.6469C9.55496 30.349 9.66332 29.2116 9.66332 29.2116C9.66332 29.2116 9.36539 26.7742 9.79869 25.9346C10.232 25.0951 11.0966 25.0217 11.6382 24.1975C12.1798 23.3733 12.6509 22.5726 12.8157 22.2664C12.9805 21.9603 12.7215 21.2302 12.7215 21.2302L12.7686 20.5708C12.7686 20.5708 13.3338 20.3589 14.0403 20.2647C14.7468 20.1705 14.7232 19.8879 15.3591 19.6524C15.9949 19.4169 16.0655 18.993 16.5601 19.205C17.0547 19.4169 17.0311 19.6524 17.5257 19.7937C18.0202 19.935 18.2086 19.8408 18.2086 19.8408C18.2086 19.8408 18.5724 18.3562 18.3295 18.0324C18.0866 17.7086 17.601 17.0071 17.628 16.4405C17.655 15.8739 18.2485 14.0392 18.5723 13.5266C18.8961 13.0139 18.8961 12.5283 18.8961 12.5283C18.8961 12.5283 19.1119 12.0157 19.4088 12.0696C19.7055 12.1236 19.8944 12.5283 19.8944 12.5283C19.8944 12.5283 20.5689 12.2585 21.1895 12.4204C21.81 12.5823 22.4306 12.6093 22.7004 12.6362C22.9702 12.6632 23.1051 12.5823 23.267 12.3125C23.4289 12.0426 23.5969 11.65 24.3523 11.542C25.1078 11.4341 26.268 10.7326 27.5091 10.6247C28.7502 10.5168 30.558 10.2739 30.7199 10.2739C30.8818 10.2739 32.4197 9.97715 32.4467 10.3549C32.4737 10.7326 32.5006 11.4341 32.4737 11.677C32.4467 11.9198 32.5276 12.4054 32.4467 12.6213C32.3657 12.8371 31.961 13.134 31.961 13.134C31.961 13.134 31.3135 13.5117 31.6103 13.8624C31.9071 14.2132 32.4197 14.7258 32.8514 15.3464C33.2831 15.9669 33.2831 16.1828 33.3371 16.3716C33.391 16.5605 33.9576 18.9618 33.9307 19.9332C33.9037 20.9045 34.2274 21.2552 33.9846 21.8488C33.7418 22.4424 32.8784 23.09 31.988 23.7645C31.0976 24.439 28.3793 24.594 28.3284 25.0009C28.2775 25.4078 32.0412 32.0705 32.0412 32.0705L34.8692 34.4495L34.9047 38.0199L32.4573 41.998C32.4573 41.998 29.8218 41.9244 28.6564 41.7615C27.491 41.5986 27.2272 42.0693 26.1497 42.3552C25.0723 42.641 24.2807 43.1468 24.0389 43.2787C23.797 43.4106 23.5331 43.3886 22.7855 43.3227C22.0379 43.2567 21.6202 43.0368 21.0704 42.9928C20.5207 42.9489 19.8391 42.9489 19.5312 43.1028C19.2234 43.2567 18.3879 43.9823 18.3879 43.9823C18.3879 43.9823 17.7502 44.0483 17.2664 43.6745C16.7827 43.3007 15.8372 42.8609 15.4414 42.4431C15.0456 42.0253 14.5618 41.8715 14.21 41.7175C13.8582 41.5636 12.9347 41.1458 12.9347 41.1458L12.7211 39.6238Z" fill="#F67206"/>
</g>
<path fill-rule="evenodd" clip-rule="evenodd" d="M36.0846 20.2734L36.271 26.8889L37.7928 26.8579L37.855 24.4974L40.9609 27.0132L41.3336 20.3355L39.8428 20.2853L39.7496 21.7952L38.1966 20.2734H36.0846Z" fill="#222222"/>
<path fill-rule="evenodd" clip-rule="evenodd" d="M41.985 20.2882L43.7881 23.4027L43.9763 26.8578L46.1785 26.9409L46.3046 23.482L48.0296 20.2799L46.6455 20.3212L45.8708 22.3354L45.1271 20.3419L41.985 20.2882Z" fill="#222222"/>
<path fill-rule="evenodd" clip-rule="evenodd" d="M50.045 20.3268L48.5211 26.9249L49.7151 26.9407L50.0136 26.1551L50.5162 26.9878L51.5688 26.2651L51.6631 26.9407L53.9882 26.9249L52.5742 20.2639L50.045 20.3268ZM50.6649 23.9141L50.1623 25.7783L51.5148 25.6229L50.6649 23.9141Z" fill="#222222"/>
<path fill-rule="evenodd" clip-rule="evenodd" d="M38.3357 9.78557L36.5519 17.5094L37.9495 17.5278L38.2989 16.6083L38.8874 17.583L40.1196 16.737L40.2299 17.5278L42.9516 17.5094L41.2965 9.71204L38.3357 9.78557ZM39.0614 13.9849L38.4731 16.1672L40.0562 15.9853L39.0614 13.9849Z" fill="#F67206"/>
<path fill-rule="evenodd" clip-rule="evenodd" d="M69.1047 20.3268L67.5808 26.9249L68.7748 26.9407L69.0733 26.1551L69.576 26.9878L70.6285 26.2651L70.7228 26.9407L73.0479 26.9249L71.634 20.2639L69.1047 20.3268ZM69.7246 23.9141L69.222 25.7783L70.5745 25.6229L69.7246 23.9141Z" fill="#222222"/>
<path fill-rule="evenodd" clip-rule="evenodd" d="M54.7329 20.3095L55.0685 26.926L56.5229 26.8941L56.6188 24.5447L59.7353 26.958L60.0394 20.2423L58.5052 20.3054L58.4736 21.8606L56.9394 20.3369L54.7329 20.3095Z" fill="#222222"/>
<path fill-rule="evenodd" clip-rule="evenodd" d="M60.8635 20.2949L61.1368 26.9291H63.5354L63.505 25.3806L64.8713 27.3086L66.7386 26.4433L64.9624 24.3635L67.027 20.6593L64.6588 20.1735L63.6568 23.2097L63.7631 20.2949H60.8635Z" fill="#222222"/>
<path fill-rule="evenodd" clip-rule="evenodd" d="M44.1886 9.75584L44.5187 17.5599L47.4603 17.6499L47.3102 15.6689L48.781 15.909L48.901 14.5883L47.3102 14.5283L47.4303 12.6973L49.2312 12.8174L49.2612 9.87589L44.1886 9.75584Z" fill="#F67206"/>
<path fill-rule="evenodd" clip-rule="evenodd" d="M40.1848 36.7118H67.7691C68.4536 36.7118 68.8586 37.1564 68.8586 37.7984V44.247L62.5891 45.4754L62.5249 45.4761C62.5612 45.3269 62.5806 45.171 62.5806 45.0106C62.5806 43.9276 61.702 43.0495 60.6182 43.0495C59.5344 43.0495 58.6558 43.9276 58.6558 45.0106C58.6558 45.1845 58.6785 45.353 58.721 45.5134L55.3123 45.5284C53.6407 45.1983 52.2038 45.2095 50.9915 45.5474L47.4641 45.5629H47.4287C47.48 45.3877 47.5077 45.2024 47.5077 45.0106C47.5077 43.9276 46.6291 43.0495 45.5452 43.0495C44.4614 43.0495 43.5828 43.9276 43.5828 45.0106C43.5828 45.2023 43.6105 45.3875 43.6618 45.5626H43.5643L39.3691 45.5659C39.0799 45.5661 38.8227 45.4164 38.8256 44.9453L38.8462 41.5464L39.4219 41.1789V37.3015C39.4219 36.8511 39.6141 36.7118 40.1848 36.7118ZM40.9054 38.2684H42.1804C42.4382 38.2684 42.6492 38.4794 42.6492 38.7372V44.1559C42.6492 44.4138 42.4382 44.6247 42.1804 44.6247H40.9054C40.6476 44.6247 40.4367 44.4138 40.4367 44.1559V38.7372C40.4367 38.4794 40.6476 38.2684 40.9054 38.2684ZM44.2605 38.2684H48.5567C48.8757 38.2684 49.1366 38.5294 49.1366 38.8484V40.426C49.1366 40.745 48.8757 41.006 48.5567 41.006H44.2605C43.9414 41.006 43.6805 40.745 43.6805 40.426V38.8484C43.6805 38.5294 43.9414 38.2684 44.2605 38.2684ZM63.2299 38.2684H67.34C67.6589 38.2684 67.9199 38.5294 67.9199 38.8484V40.426C67.9199 40.745 67.6589 41.006 67.34 41.006H63.2299C62.911 41.006 62.65 40.745 62.65 40.426V38.8484C62.65 38.5294 62.911 38.2684 63.2299 38.2684ZM56.9068 38.2684H61.203C61.5221 38.2684 61.783 38.5294 61.783 38.8484V40.426C61.783 40.745 61.5221 41.006 61.203 41.006H56.9068C56.5877 41.006 56.3268 40.745 56.3268 40.426V38.8484C56.3268 38.5294 56.5877 38.2684 56.9068 38.2684ZM50.5836 38.2684H54.8798C55.1989 38.2684 55.4598 38.5294 55.4598 38.8484V40.426C55.4598 40.745 55.1989 41.006 54.8798 41.006H50.5836C50.2646 41.006 50.0036 40.745 50.0036 40.426V38.8484C50.0036 38.5294 50.2646 38.2684 50.5836 38.2684Z" fill="#222222"/>
<mask id="mask3_25_611" style="mask-type:luminance" maskUnits="userSpaceOnUse" x="43" y="43" width="5" height="4">
<path fill-rule="evenodd" clip-rule="evenodd" d="M45.5458 43.6728C46.4079 43.6728 47.1067 44.3723 47.1067 45.2351C47.1067 46.0979 46.4079 46.7974 45.5458 46.7974C44.6838 46.7974 43.985 46.0979 43.985 45.2351C43.985 44.3723 44.6838 43.6728 45.5458 43.6728ZM45.5458 44.2466C46.0913 44.2466 46.5335 44.6891 46.5335 45.2351C46.5335 45.7811 46.0913 46.2236 45.5458 46.2236C45.0003 46.2236 44.5582 45.7811 44.5582 45.2351C44.5582 44.6891 45.0003 44.2466 45.5458 44.2466Z" fill="white"/>
</mask>
<g mask="url(#mask3_25_611)">
<path fill-rule="evenodd" clip-rule="evenodd" d="M45.5458 43.6728C46.4079 43.6728 47.1067 44.3723 47.1067 45.2351C47.1067 46.0979 46.4079 46.7974 45.5458 46.7974C44.6838 46.7974 43.985 46.0979 43.985 45.2351C43.985 44.3723 44.6838 43.6728 45.5458 43.6728ZM45.5458 44.2466C46.0913 44.2466 46.5335 44.6891 46.5335 45.2351C46.5335 45.7811 46.0913 46.2236 45.5458 46.2236C45.0003 46.2236 44.5582 45.7811 44.5582 45.2351C44.5582 44.6891 45.0003 44.2466 45.5458 44.2466Z" fill="#222222"/>
</g>
<path d="M19.1702 27.6101L19.201 23.1595M17.4485 37.5814C17.4485 37.5814 17.3894 38.6461 17.5964 39.2375C17.8034 39.8289 17.8235 40.3288 17.3208 40.8315" stroke="white" stroke-width="0.22065" stroke-miterlimit="2.61313"/>
<path d="M34.6151 36.7638C34.6151 36.7638 33.356 37.0786 32.9554 36.8496C32.5548 36.6207 32.7264 36.22 32.3258 36.1914C31.9252 36.1628 30.6947 36.0484 30.6947 36.0484M12.2439 32.8395C12.2439 32.8395 11.9819 33.1112 11.6812 32.8201C11.3805 32.5291 11.4872 32.238 10.9439 32.2865C10.4006 32.3351 10.0901 32.4515 10.0901 32.4515L9.69342 32.4509M27.647 28.4745C27.647 28.4745 27.647 28.9753 27.5969 29.5013C27.5468 30.0272 27.2713 29.877 27.2964 30.4029C27.3214 30.9289 27.3464 31.4297 27.2212 31.8555C27.096 32.2813 25.6434 32.7321 25.6434 32.7321M22.1144 16.4757C22.1144 16.4757 20.9934 16.8493 20.5977 17.3989C20.2021 17.9484 19.9823 18.4319 19.9823 18.4319C19.9823 18.4319 19.257 18.1022 18.9932 18.4539C18.7294 18.8056 18.1232 19.2202 18.1232 19.2202M10.6602 37.8232C10.6602 37.8232 11.6384 37.2633 11.9464 36.9297C12.2543 36.596 12.0796 36.4905 12.0618 36.2881C12.0441 36.0858 12.0441 36.0858 12.0441 36.0858M8.97095 35.6956C8.97095 35.6956 9.88399 35.6043 10.3733 35.6209C10.8626 35.6374 11.2109 35.7453 11.4182 35.6872C11.6256 35.6292 11.808 35.5877 11.7002 35.3306C11.5924 35.0735 11.6504 34.8662 10.9041 34.9408C10.1577 35.0155 9.61859 35.198 9.5274 35.2145C9.43621 35.2311 9.10047 35.237 9.10047 35.237M9.07245 36.3461L11.9972 36.0899L13.1011 35.993M29.035 29.5777L27.9914 28.5856L26.6484 28.5643L16.8367 21.4437M12.4273 26.6399C12.4273 26.6399 12.0509 25.6017 12.5418 25.4232C13.0328 25.2447 13.7358 25.2558 13.7358 25.2558L13.6911 22.7006L16.8489 22.8121L16.8313 20.8371M16.8313 20.8371L16.818 18.9938M16.8313 20.8371L12.6183 20.8515" stroke="white" stroke-width="0.22065" stroke-miterlimit="2.61313"/>
<path fill-rule="evenodd" clip-rule="evenodd" d="M15.218 40.4858C15.2185 39.8824 15.8869 39.0909 16.2583 38.6803C16.7807 38.1027 17.0524 37.6311 18.0512 37.984C19.7543 38.5857 20.6605 38.519 20.2366 39.8001L19.7579 40.7508L16.3605 40.5465C15.9734 40.5113 15.612 40.5175 15.218 40.4858ZM9.45782 29.168C9.92715 29.2917 10.5061 29.3838 10.7981 29.6533C10.5267 29.8413 10.3845 29.8124 10.2881 30.1794C10.6086 30.4089 11.0397 30.3582 11.4823 30.5634C11.8781 30.7469 12.0506 30.9247 12.4111 31.1077C12.4 32.1783 11.133 34.219 13.3602 33.8432C13.2139 34.879 12.8882 35.5512 12.8905 36.8086C12.8919 37.584 12.7572 39.3427 12.838 39.9191L12.8645 41.0868C13.1279 41.2582 13.6173 41.5099 14.0349 41.6844C15.5152 42.3032 15.3552 42.7838 17.2823 43.6995C18.7414 44.3929 18.4678 43.5823 19.6742 43.2672C20.658 43.0102 21.6958 43.0964 22.6176 43.3219L23.0019 43.3211C22.5727 43.1187 22.1863 43.2023 21.7873 42.9128C21.9114 42.5043 22.1103 42.7499 22.1051 42.3891C22.1 42.0268 22.1437 42.3865 21.9453 42.1062C21.5656 41.5695 21.3669 40.6876 21.4739 39.9806C21.5419 39.5311 21.6405 39.7042 21.7718 39.2338C21.862 38.9112 21.8549 38.6715 21.9652 38.3772C22.055 38.1377 22.2525 37.8777 22.3028 37.6895C22.4288 37.2183 22.1483 37.4065 22.3883 36.9144L21.9944 36.704C22.1161 36.2572 22.1611 36.3658 22.1119 35.8183C22.0988 35.6723 22.0915 35.3701 22.0747 35.2283L21.9605 34.7684C21.9561 34.7343 22.0634 34.5384 21.9081 34.2454C21.0977 32.7159 22.516 33.281 23.991 33.0487C24.3876 32.9862 24.4167 33.0914 24.459 32.8515L22.3431 31.7923C21.9112 31.7452 21.668 31.5156 21.1761 31.3805C20.7139 31.2536 20.4482 31.2152 20.1789 30.9178C19.8795 30.4167 20.5422 27.0898 17.863 27.3381C17.5421 27.3678 17.2859 27.4476 17.0107 27.4626C15.8645 27.5251 15.9767 26.2095 13.338 26.2573C13.0784 26.2621 12.7416 26.317 12.3807 26.385C10.8287 26.6775 8.83067 27.2113 10.6078 25.0291C10.9752 24.578 11.3865 24.2746 11.8093 23.915C13.5869 22.4032 12.5772 21.1885 12.4096 20.7824L12.3404 20.4286C11.8158 20.5414 11.9631 20.5307 11.3701 21.2344C11.7129 21.6596 12.6087 21.5457 11.2061 22.6746C10.5526 23.2006 10.4 23.4449 9.85382 24.0641C8.14709 25.999 7.83573 25.6117 8.02614 27.5171C7.50234 27.4584 6.86264 26.8894 6.49776 26.679C6.26913 26.5473 6.62713 26.7077 6.21544 26.5444C6.37827 27.1022 6.72543 27.3156 7.15853 27.7219L7.49039 28.1151C6.04611 27.9854 5.99107 27.3712 5.14893 26.9328C5.30659 27.6139 6.1883 28.2953 6.81623 28.5842C7.69581 28.9889 8.47092 29.0328 9.45782 29.168Z" fill="#222222"/>
<path fill-rule="evenodd" clip-rule="evenodd" d="M23.7467 10.2302C23.8128 10.4672 23.9829 10.8277 24.0784 11.0788C24.1251 11.2018 24.0722 11.2233 24.0058 11.3077L22.6238 13.0733C22.549 13.1714 22.5517 13.2209 22.3794 13.238L18.4555 13.601C17.9617 13.6426 17.4149 13.6439 16.9271 13.6028C16.099 13.533 16.286 13.5431 15.6148 13.3368L15.6977 12.8761L15.2851 12.8781L15.1624 13.0398C15.0078 12.9805 13.7645 11.8771 13.6264 11.7283L12.7024 10.8607C12.6236 10.7867 12.6227 10.7519 12.4826 10.783C12.2875 10.8262 12.111 10.8735 11.9059 10.9196L13.782 14.2835L13.5902 14.3393L13.6537 14.5677C13.523 14.653 12.1877 14.9594 11.9143 15.0294C11.6208 15.1046 11.3353 15.1789 11.0419 15.2553C10.8526 15.3047 10.2766 15.4155 10.2726 15.5656C10.3233 15.7505 10.5172 15.7308 10.7293 15.7511C11.0032 15.7773 11.0202 15.7575 11.2762 15.6944L13.3319 15.1946C14.0183 15.0289 13.9446 14.9665 14.3478 15.1262C14.9396 15.3607 15.6228 15.604 16.2557 15.7765C16.5346 15.8525 17.0842 15.8795 17.394 15.9135C17.8317 15.9616 18.181 15.9078 18.5858 15.9338C18.0265 16.1429 17.4012 16.3276 16.8256 16.5126L13.2756 17.6706C13.1529 17.7118 12.932 17.8229 12.825 17.7789C12.7916 17.7653 12.5356 17.5532 12.4927 17.5188C12.3056 17.3691 12.285 17.3131 12.0921 17.3275C11.9194 17.3405 11.7436 17.3582 11.5673 17.3722C11.5861 17.4421 11.7807 17.5836 11.8604 17.6647C11.9664 17.7727 12.0714 17.847 12.1797 17.96C12.4497 18.2415 12.3935 18.3916 12.9875 18.3916C13.3596 18.3916 13.6144 18.2858 13.945 18.1849L18.3605 16.8716C18.5457 16.8167 20.0683 16.3371 20.1267 16.3535L20.3055 16.4833C20.3897 16.3677 20.4273 16.3264 20.6226 16.3473C20.5567 16.3765 20.4078 16.5389 20.4478 16.6856L20.6519 16.6584C20.7923 17.0014 21.0094 17.0346 21.4559 17.0452C21.6289 17.0494 22.4926 17.0301 22.616 16.9994C22.6848 16.9823 22.9575 16.8251 23.0065 16.7821C23.0742 16.7228 23.1716 16.5239 23.2032 16.3905C23.2375 16.2452 23.1836 16.0429 23.1311 15.9133C23.056 15.7276 22.9702 15.7458 22.8165 15.6466C23.7667 15.4887 25.7323 15.3897 26.8163 15.2914C27.4656 15.2325 28.144 15.1753 28.7809 15.0886C29.4634 14.9957 29.877 14.8251 30.3384 14.4936C31.0327 13.9949 30.7083 13.8057 29.9877 13.432C29.8386 13.3546 29.7929 13.2895 29.641 13.2149C29.5223 13.1567 29.3802 13.11 29.2469 13.0734C28.9653 12.9963 28.661 12.9138 28.3696 12.8679C27.6982 12.7622 26.1095 12.909 25.3013 12.9723C25.0825 12.9894 24.5284 13.0682 24.3384 13.0434L24.9983 11.1646C24.8911 10.9924 24.7473 10.8249 24.6239 10.6589C24.2718 10.1858 24.4077 10.1997 23.7467 10.2302Z" fill="#222222"/>
<path fill-rule="evenodd" clip-rule="evenodd" d="M35.1137 37.0109C35.0842 37.1639 35.1422 36.8627 35.1137 37.0109V37.0109ZM28.0938 18.726C28.5218 19.06 28.5987 18.1716 29.1433 18.5285C29.1072 19.0194 28.6266 18.5847 28.5521 19.0782C28.987 19.4381 29.2788 19.0467 29.7 19.3037C29.7022 19.3147 29.7048 19.3209 29.7016 19.3375C29.6985 19.3539 29.7028 19.3632 29.7015 19.3707C29.6543 19.6405 29.3081 19.8705 29.0498 19.8905C29.1567 20.1635 29.3448 20.1711 29.5689 20.9497C29.6858 21.3557 29.7626 21.7132 29.8966 22.1024C29.9613 22.2904 30.0246 22.4628 30.0866 22.6453C30.1433 22.8122 30.2411 23.0724 30.3025 23.2065C30.8167 24.3301 31.1531 25.0219 31.8596 26.0043C32.5763 27.0009 33.3508 28.1147 34.1886 29.0097C35.3177 30.2156 36.4103 30.5141 37.07 31.3016C38.0028 32.415 37.3058 33.7722 37.1007 35.3883C37.0355 35.9019 36.9993 36.411 36.8857 36.9233C36.8103 37.2631 36.7644 37.5315 36.5118 37.6788C36.4997 37.6375 36.4191 36.7643 36.4205 36.6863C36.4321 36.0506 36.7402 36.1185 36.9213 35.772C37.0426 35.5399 36.9361 35.0238 37.0037 34.6738C37.0894 34.2296 37.1841 33.9088 37.2492 33.44C36.9056 33.7097 36.9747 33.6131 36.7887 34.0892C36.4843 34.8681 35.9157 35.6653 36.0886 36.7633C36.1938 37.431 36.5539 37.5978 36.1831 38.4336C35.9394 38.9828 35.6065 39.5216 35.4681 40.14C35.3749 40.556 35.3574 40.9642 35.2589 41.3519C35.2113 41.5393 35.1111 41.7207 35.0728 41.8818C35.0172 42.1152 35.1241 42.1665 35.1297 42.3808C35.0088 42.5146 34.9336 42.4954 34.7918 42.6406C34.5547 42.8834 34.7004 42.8496 33.8561 42.8374L33.442 42.816C33.4295 42.8124 33.4197 42.809 33.408 42.8046L33.3464 42.7715C33.3386 42.7674 33.3259 42.7599 33.3174 42.7519C33.2783 42.4692 33.5884 42.3484 33.7354 42.2773C34.2872 42.0105 34.5388 40.9911 34.7832 40.2654C35.0042 39.6095 35.3438 37.8944 35.1356 37.1321C35.1127 37.0484 35.1214 37.0829 35.1046 37.0492C35.0132 37.628 35.3531 37.8055 34.89 38.4894C34.0571 39.7193 34.1488 39.0942 33.4254 40.8967C33.3297 41.1351 33.239 41.3332 33.096 41.5303C32.7967 41.9433 33.0166 41.8915 32.91 42.2384C32.6114 42.3878 32.586 42.3102 32.3108 42.5387C32.0351 42.4737 31.2138 42.3371 31.0711 42.1957C31.1175 41.7717 31.5537 41.8676 31.8869 41.6635C32.3618 41.3725 33.4215 39.4414 33.655 38.8406C34.7875 35.9262 33.3653 35.8996 33.8472 34.1076C32.5684 33.8845 32.9244 33.9053 31.8731 33.558C31.4658 34.0305 31.2704 35.3266 31.1038 36.0645C30.9005 36.9651 30.7163 37.8827 30.5714 38.7894C30.5023 39.2221 30.4557 39.6984 30.3586 40.1243C30.3044 40.3623 30.2177 40.5464 30.1574 40.7703C30.0717 41.0887 30.1891 41.1236 30.1373 41.3745C30.015 41.4591 29.9047 41.4757 29.7926 41.551C29.6029 41.6785 29.6837 41.7441 29.3881 41.7074C29.0942 41.6709 28.5611 41.6234 28.2962 41.5197C28.3071 40.9749 29.0151 41.1888 29.3432 40.5757C29.5572 40.176 29.7581 39.242 29.8873 38.7574C30.3238 37.1201 29.8558 36.7694 29.8952 35.4041C29.3014 36.9129 28.9353 39.3835 28.4749 40.4042C28.3484 40.6845 28.3874 41.0807 28.3113 41.1458C28.1938 41.2463 28.1561 41.148 27.7348 41.4397L26.488 41.1396C26.5794 40.5584 27.1299 40.8303 27.4587 40.4814C27.7351 40.188 27.8928 39.6997 28.0537 39.2643C28.4956 38.0686 28.6333 37.7032 28.6993 36.424C28.7481 35.479 28.8003 34.5283 28.8977 33.5749C28.9307 33.2519 29.1376 32.3598 29.0198 32.1418C28.8121 31.7571 28.6795 31.662 28.5877 31.0539C28.3809 29.6838 28.6041 29.3848 28.9925 28.3689C29.1594 27.9324 28.9382 27.5213 28.8313 27.1526C28.4624 25.8811 28.2364 24.9478 28.0181 23.5872C27.9004 22.8535 27.7436 21.7785 27.7439 21.0028C27.2792 20.944 27.3999 21.0192 26.9385 20.7532C25.8991 20.1539 25.8556 21.312 25.0693 20.4089C24.9877 20.3152 24.9119 20.1754 25.0354 20.0021C25.2774 19.6623 26.0949 19.6456 26.4426 19.3362C26.7483 19.0644 27.1704 18.6736 27.616 18.684L27.8196 18.6791C27.9987 18.6581 27.8713 17.8218 28.2612 18.1196C28.533 18.3273 28.1231 18.6081 28.0938 18.726Z" fill="#222222"/>
<path d="M34.2525 47.0115L35.9092 46.99L35.8873 45.86M33.763 41.981C33.763 41.981 33.5811 42.1323 33.61 42.4311C33.6389 42.7298 33.8799 42.6527 33.6293 42.8937C33.3787 43.1347 33.2438 43.1154 33.2726 43.3275C33.3015 43.5395 33.2725 43.8714 33.2725 43.8714M63.9478 45.4343C63.9478 45.4343 64.027 48.0375 64.129 48.2618C64.231 48.4862 64.4205 48.8188 64.4205 48.8188M53.8615 50.098L54.4802 51.0608M55.1329 48.5476L54.1527 48.8288C54.1527 48.8288 54.2512 49.3025 54.3531 49.5371C54.4551 49.7716 54.2817 49.8532 53.9758 50.0368C53.6698 50.2204 52.9608 50.4282 52.9608 50.4282M57.4045 47.2689L55.1451 47.3065L55.1316 48.6823L55.4688 48.6957C55.4688 48.6957 55.1047 49.7343 55.1181 50.031C55.1316 50.3278 55.2935 50.4626 55.2935 50.4626C55.2935 50.4626 55.8195 50.058 56.2511 50.085C56.6827 50.112 56.7637 50.085 56.7637 50.085C56.7637 50.085 56.8581 49.478 56.993 49.3296C57.1279 49.1813 57.5864 48.6687 57.5864 48.6687M57.5864 48.6687C57.5864 48.6687 57.4246 47.6842 57.3841 47.4548C57.3437 47.2255 57.519 47.0771 57.9911 46.6456C58.4632 46.214 58.1763 45.5777 58.1763 45.5777M57.5864 48.6687L60.7561 50.7054L60.8775 51.2045L62.2828 51.7411M54.2935 51.0446L53.1591 52.4193M62.4812 51.7584L52.8686 50.9204C52.8686 50.9204 52.6577 51.3578 52.9121 51.7986C53.1664 52.2394 53.302 52.9516 53.3359 53.4602C53.3698 53.9688 53.4207 54.1045 53.6581 54.4605C53.8955 54.8166 54.1565 55.2514 54.1565 55.2514M54.1565 55.2514L52.7339 55.8417L52.6885 56.4622L52.1891 56.5681C52.1891 56.5681 52.3102 57.007 52.3102 57.2643C52.3102 57.5216 52.3858 57.7031 52.3253 58.0966C52.2648 58.4901 52.0983 58.8988 52.295 59.0803C52.4918 59.2619 52.7945 59.489 53.2939 59.4284C53.7933 59.3679 53.6268 59.4587 53.6874 59.716C53.7479 59.9733 53.869 60.4576 53.763 60.6241C53.6571 60.7905 52.9761 60.7149 52.9761 60.7149C52.9761 60.7149 52.1437 59.8825 51.7956 59.6857C51.4475 59.489 50.3125 59.0501 49.7979 58.7777C49.2833 58.5053 49.2985 58.8988 48.9958 59.0047C48.6931 59.1107 48.7234 58.8534 48.4812 58.6717C48.2391 58.4901 47.9969 58.9139 47.9969 58.9139M54.1565 55.2514C54.1565 55.2514 54.7774 56.484 55.2862 56.5643C55.795 56.6446 56.6652 56.8454 56.8124 56.9391C56.9597 57.0329 58.1914 57.3943 58.2717 58.1173C58.3521 58.8403 58.4994 58.7331 59.2759 59.0277C60.0524 59.3222 59.972 59.4829 60.4674 59.3758C60.9628 59.2687 63.5277 58.2113 63.5277 58.2113M56.7865 61.2689L54.0288 61.945L54.2109 62.6175M56.9674 57.0093C56.9674 57.0093 56.9318 57.4737 57.0245 57.8033C57.1172 58.1329 57.1172 58.3389 57.0863 58.6787C57.0554 59.0186 56.6537 59.8013 56.6022 60.0176C56.5507 60.2338 56.5404 60.4089 56.664 60.7282C56.7876 61.0474 56.7155 61.2225 56.8803 61.4697C57.0451 61.7168 56.9833 61.8713 57.2922 61.8405C57.6012 61.8096 57.9616 61.6551 57.9616 61.6551L58.3324 62.2421L57.8123 62.958L58.6769 64.1289C58.6769 64.1289 59.0192 63.3543 59.1632 62.94C59.3073 62.5257 59.3073 61.7511 59.0552 61.3369C58.803 60.9226 58.3527 61.0306 58.1725 60.6164C57.9924 60.2021 58.1185 59.1213 58.1185 59.1213L58.5711 58.7687M44.3888 72.2005L44.4277 76.1366C44.4277 76.1366 43.9194 76.2246 43.4307 76.3028C42.942 76.381 42.7954 76.4592 42.6977 76.3908C42.5999 76.3223 42.5511 76.205 42.5511 76.205C42.5511 76.205 42.2871 76.3125 42.1308 76.2148C41.9744 76.1171 41.5834 75.8336 41.5834 75.8336L40.9809 76.3317M44.3888 72.2005L45.2252 72.6253L45.1588 74.2449L46.5874 74.2654C46.5874 74.2654 46.6833 73.6358 46.738 73.4031C46.7927 73.1704 47.1623 72.8009 47.4087 72.6366C47.6551 72.4724 47.6277 72.7872 48.052 72.8693C48.4763 72.9514 49.2838 73.2115 49.2838 73.2115C49.2838 73.2115 49.4618 73.1157 49.7218 72.7735C49.9819 72.4313 49.8202 72.3868 49.9278 72.1042C50.0354 71.8217 50.3449 71.9562 50.614 71.7141C50.883 71.4719 50.7485 71.3643 50.8158 71.001C50.8831 70.6377 51.1252 70.6377 51.2867 70.5301C51.4482 70.4224 52.3899 69.6959 52.8474 69.3865C53.3048 69.077 53.343 69.2555 53.1179 69.0754C52.8928 68.8954 52.1875 68.8654 52.1875 68.8654C52.1875 68.8654 51.5572 67.7999 51.3771 67.4848C51.197 67.1697 50.3567 67.2447 50.3567 67.2447C50.3567 67.2447 50.1916 66.9896 50.0265 66.5094C49.8614 66.0291 49.8164 66.0591 49.5763 65.774C49.3362 65.4889 49.2762 65.1588 49.1261 64.8286C48.9761 64.4985 48.6909 64.6635 48.1207 64.5885C47.5505 64.5135 47.2008 64.7291 47.2008 64.7291M44.3888 72.2005L44.3225 69.094L45.4376 69.1206L45.3712 65.815C45.3712 65.815 46.4024 65.3232 46.858 65.2538C47.3136 65.1845 47.8485 65.4915 48.215 65.343C48.5815 65.1944 48.6904 65.0458 48.839 64.9765C48.9875 64.9071 48.9083 64.9171 49.562 64.9666C50.2157 65.0161 50.602 65.2043 50.7011 65.1349C50.8001 65.0656 50.9982 64.3228 51.5529 64.1742C52.1076 64.0256 52.1571 63.9365 52.375 63.8969C52.5929 63.8572 52.3056 63.5106 52.5929 63.3818C52.8801 63.2531 53.4942 63.1045 53.7716 62.9064C54.0489 62.7083 54.1971 62.5646 54.1971 62.5646L54.3653 63.2071C54.3653 63.2071 55.2907 63.0465 55.5125 63.1765C55.7343 63.3065 56.4609 63.5894 56.4685 63.8113C56.4762 64.0331 56.5221 64.9049 56.5374 65.2797C56.5526 65.6545 56.7666 67.3194 56.7666 67.3194C56.7666 67.3194 55.7142 68.8735 55.5184 69.5221M55.5184 69.5221L53.4541 69.5311L53.4078 69.1379L53.2518 69.1713M55.5184 69.5221C55.3227 70.1707 55.3153 70.7061 55.4761 71.1143C55.6369 71.5225 55.9462 71.671 55.9462 72.0049C55.9462 72.3389 55.9833 73.9469 55.9833 73.9469L56.5073 73.989M47.2008 64.7291C47.2008 64.7291 46.582 63.971 46.3189 63.7234C46.0559 63.4759 46.2261 63.414 46.2261 62.9653C46.2261 62.5167 46.2259 61.167 46.2259 60.8017C46.2259 60.4364 46.1802 60.2842 46.4998 60.2233C46.8194 60.1624 48.1435 60.3755 48.1435 60.0559C48.1435 59.7363 48.0674 58.7166 48.037 58.4883C48.0065 58.26 47.5652 58.4426 46.8499 58.4731C46.1345 58.5035 46.3172 58.5339 46.2411 58.26C46.165 57.9861 46.0128 56.9663 46.028 56.388C46.0432 55.8096 45.9975 55.14 45.7997 54.8508C45.6019 54.5617 44.5669 54.6834 44.5669 54.6834L44.5517 54.2572L43.8516 54.5008C43.8516 54.5008 43.8364 54.729 43.7298 54.9878C43.6233 55.2465 43.5624 55.2009 43.0906 55.2922C42.6188 55.3835 41.8121 55.1552 41.5077 55.003C41.2034 54.8508 41.2186 54.5008 40.9294 54.5768C40.6402 54.653 40.7924 54.516 40.8229 54.0746C40.8534 53.6332 40.7011 53.6332 40.3663 53.3897C40.0315 53.1462 36.901 53.5303 36.901 53.5303M47.2008 64.7291C47.2008 64.7291 46.0869 65.1469 45.7001 65.2706C45.3133 65.3944 44.3231 65.1932 43.7661 65.1314C43.2091 65.0695 43.0545 64.9148 42.8378 64.7446C42.6212 64.5744 42.0952 64.6672 40.5789 64.6672C39.0628 64.6672 39.0009 64.76 38.6141 64.6053C38.2273 64.4506 38.351 64.2031 37.9178 64.265C37.4846 64.3268 36.6215 64.6142 36.6215 64.6142M37.7468 45.8241L37.7371 46.6809H38.3059C38.3059 46.6809 38.4505 46.305 38.6432 46.4881C38.836 46.6712 39.077 46.623 38.971 46.9218C38.8649 47.2207 38.3829 47.4906 38.3251 47.7219C38.2673 47.9532 38.2576 48.3292 38.2576 48.3292C38.2576 48.3292 38.2865 48.3292 38.5468 48.4159C38.8071 48.5027 38.8071 48.5123 38.8071 49.0617C38.8071 49.6111 38.9806 49.8039 38.7685 50.016C38.5564 50.228 38.4023 50.2859 37.9974 50.228C37.5926 50.1702 37.5251 50.1895 37.4094 49.9871C37.2937 49.7846 37.342 49.5148 37.1588 49.6208C36.9757 49.7268 37.0239 49.8039 36.7829 49.9389C36.5419 50.0738 36.4551 50.0256 36.3588 50.0353C36.2624 50.0449 36.242 50.292 36.318 50.5265C36.3941 50.761 36.5564 50.9469 36.3635 51.1067C36.1706 51.2665 36.143 51.228 36.0163 51.1839C35.8895 51.1398 35.8895 51.0516 35.7848 51.2004C35.6801 51.3492 35.6055 51.4519 35.6055 51.4519M38.8075 49.105L40.8608 49.413C40.8608 49.413 40.684 49.6405 40.5934 49.863C40.5027 50.0854 40.5027 50.448 40.5027 50.7858C40.5027 51.1237 40.6511 51.2885 40.5192 51.4368C40.3874 51.5851 39.9754 51.6099 39.7612 51.8653C39.5469 52.1207 39.4563 52.2196 39.308 52.3185C39.1596 52.4173 39.1019 52.2938 38.9042 52.2361C38.7065 52.1784 38.5911 51.9642 38.5664 52.2278C38.5417 52.4915 38.7724 52.6233 38.4346 52.5904C38.0967 52.5574 37.899 52.4833 37.66 52.3761M37.66 52.3761C37.4211 52.269 37.4128 52.0054 37.0997 52.063C36.7866 52.1207 36.3691 52.4069 36.3691 52.4069M37.66 52.3761L36.8046 53.215M34.3802 45.8892L38.6139 45.8073" stroke="white" stroke-width="0.22065" stroke-miterlimit="2.61313"/>
<path fill-rule="evenodd" clip-rule="evenodd" d="M20.4832 22.9332C20.7192 22.9955 20.8573 22.9372 21.0741 23.0066C21.2117 23.0506 21.5552 23.2298 21.6341 23.0568C21.7094 22.8916 21.6778 23.0362 21.7388 22.9085C21.6115 22.6328 21.1925 22.7576 20.6556 22.4547C20.7539 22.1547 20.8048 22.2868 20.8227 21.7994C20.8329 21.5222 20.6847 21.6814 20.9207 21.4472C20.9123 21.3389 20.8491 21.4319 20.9185 21.3173C20.949 21.267 20.937 21.326 20.962 21.2545C20.9857 21.1865 20.9587 21.2196 20.9685 21.1625C20.9817 21.0862 21.0075 21.1187 21.0252 21.0067C21.0418 20.9018 21.0438 20.9075 21.0675 20.8112C21.126 20.5736 21.1034 20.302 21.1962 20.121L21.1284 19.998C21.0753 20.0217 21.0486 20.0515 20.9988 20.0779C20.9399 20.1093 20.899 20.111 20.8433 20.1378C20.7827 20.167 20.6581 20.2922 20.617 20.3436C20.4468 20.5563 20.3779 20.6089 20.2403 20.8541C20.1881 20.9469 20.1426 21.0586 20.0891 21.1348C20.0352 21.2117 19.9562 21.2901 19.925 21.4036C19.8624 21.6317 19.9247 22.1659 19.7716 22.1786L19.5503 22.1786C19.4547 22.1834 19.3653 22.1937 19.2689 22.198C19.2962 22.4528 19.4433 22.559 19.6183 22.6435C19.6138 22.8321 19.4222 23.0762 19.3433 23.1763C19.1626 23.4055 19.188 23.4352 19.1417 23.7735C19.1124 23.9873 19.0828 24.685 19.1602 24.8976C19.2032 25.0155 19.2331 24.9405 19.2832 25.1899L19.3332 25.16C19.3371 25.1581 19.3438 25.1549 19.3479 25.1531C19.3516 25.1515 19.3579 25.1494 19.3615 25.148C19.493 25.0962 19.4374 25.0311 19.5258 24.8709C19.5608 24.8075 19.5593 24.8491 19.5979 24.7703C19.6931 24.5756 19.6767 24.68 19.7142 24.5643C19.7596 24.4248 19.8127 24.3553 19.8511 24.2683C19.8835 24.1948 19.8471 24.1939 19.9103 24.1111C19.9414 24.0704 19.9288 24.1222 19.9529 24.0456C19.9653 24.0061 19.957 23.9914 19.9695 23.9526C19.991 23.886 20.0146 23.9121 20.0453 23.8128C20.128 23.5457 20.3773 23.4751 20.4832 22.9332Z" fill="#222222"/>
<path fill-rule="evenodd" clip-rule="evenodd" d="M21.4299 30.9668C21.4299 30.9668 23.2979 30.9668 23.9454 30.9668C24.593 30.9668 24.7674 31.0415 25.3153 30.9668C25.8632 30.892 25.8384 30.6928 26.735 30.6928C27.6316 30.6928 28.0799 31.3652 28.1297 32.2619C28.1796 33.1585 28.2543 34.0303 28.2045 34.3291C28.1546 34.628 28.2294 35.4749 28.2294 35.4749C28.2294 35.4749 28.1048 36.0477 28.4037 36.8696C28.7026 37.6915 28.9018 37.7912 28.9018 38.1897C28.9018 38.5882 28.8271 39.0614 29.0264 39.3603C29.2256 39.6592 29.2256 39.7339 29.2256 40.0079C29.2256 40.2819 29.3751 40.7551 29.3751 40.7551L27.9746 41.6235C26.7214 41.9324 25.6238 42.2793 24.6167 42.6483C24.0825 42.7942 23.5308 43.3331 23.0845 43.3677C22.2056 43.3545 21.4788 43.1891 20.9152 42.8605L21.0735 42.2585C21.0735 42.2585 21.1883 42.3063 20.8396 41.5093C20.4909 40.7123 20.2065 39.5797 20.657 38.842C21.1076 38.1044 21.1808 37.2183 21.4299 36.8447C21.6789 36.4711 21.7038 35.973 21.7038 35.973V35.2756L21.1808 35.2258C21.1808 35.2258 21.4797 34.7277 21.4548 33.9805C21.4299 33.2333 21.5295 32.7351 21.4299 32.5608C21.3302 32.3864 20.857 32.4113 20.9566 31.8634C21.0563 31.3154 21.4299 30.9668 21.4299 30.9668Z" fill="white"/>
</svg>
