<svg width="58" height="57" viewBox="0 0 58 57" fill="none" xmlns="http://www.w3.org/2000/svg">
<g clip-path="url(#clip0_20_472)">
<path d="M47.5457 28.7708C43.3192 33.74 39.8217 36.6309 34.3129 38.2297C28.8041 39.8284 23.8545 37.2223 25.0737 34.7631C26.293 32.304 31.1806 37.3032 33.4461 36.1414C33.8964 35.9292 34.2731 35.5875 34.5279 35.1599C34.7827 34.7323 34.904 34.2384 34.8765 33.7414C34.8489 33.2444 34.6736 32.767 34.373 32.3703C34.0725 31.9735 33.6602 31.6755 33.1892 31.5144C31.3223 30.6756 28.2389 30.2205 30.732 29.0231C33.2251 27.8258 37.8342 32.5006 39.7058 28.8466C41.5774 25.1926 34.9483 26.2732 34.5849 25.0974C34.2613 24.0507 35.5525 23.6817 37.3682 23.3301C40.6981 22.9091 42.3816 24.5877 44.0039 23.1245C45.6263 21.6613 45.4329 18.9891 42.7733 17.3913C40.1138 15.7935 38.0555 18.3306 36.9105 17.1876C35.7655 16.0445 38.8861 13.8249 37.6157 11.7618C37.3976 11.3243 37.0837 10.9414 36.6973 10.6417C36.311 10.3421 35.8622 10.1334 35.3841 10.031C34.906 9.92866 34.411 9.93528 33.9359 10.0504C33.4607 10.1656 33.0176 10.3863 32.6394 10.6962C32.2687 11.0182 31.9769 11.421 31.7865 11.8736C31.5961 12.3262 31.5122 12.8165 31.5413 13.3066C29.0234 12.1186 24.7607 11.3871 19.4908 14.8376C15.0803 17.8919 11.88 22.3955 10.4465 27.5652C14.673 22.596 18.1694 19.7064 23.6793 18.1064C29.1892 16.5063 34.1389 19.1125 32.9186 21.5729C31.6983 24.0333 26.8127 19.0315 24.5461 20.1946C24.0959 20.4067 23.7193 20.7486 23.4645 21.1761C23.2096 21.6037 23.0882 22.0976 23.1158 22.5946C23.1434 23.0916 23.3187 23.569 23.6193 23.9658C23.9199 24.3625 24.3321 24.6605 24.803 24.8215C26.6699 25.6603 29.7545 26.1142 27.2603 27.3129C24.7662 28.5115 20.1593 23.8364 18.2853 27.4906C16.4114 31.1449 23.0428 30.0641 23.4063 31.2398C23.7286 32.2855 22.4387 32.6556 20.6241 33.0059C17.2919 33.4271 15.6084 31.7486 13.9861 33.2118C12.3637 34.675 12.5581 37.3458 15.2166 38.9449C17.8751 40.544 19.9357 38.0067 21.0794 39.1486C22.2231 40.2906 19.1039 42.5114 20.3743 44.5744C20.5924 45.012 20.9063 45.3948 21.2926 45.6945C21.6789 45.9941 22.1278 46.2028 22.6058 46.3052C23.0839 46.4075 23.5789 46.4009 24.0541 46.2858C24.5292 46.1706 24.9723 45.9499 25.3505 45.64C25.7211 45.318 26.0128 44.9151 26.2032 44.4626C26.3936 44.01 26.4776 43.5197 26.4486 43.0296C28.9665 44.2176 33.2303 44.9478 38.5002 41.4973C42.9109 38.4435 46.1116 33.9403 47.5457 28.7708Z" fill="white"/>
</g>
<defs>
<clipPath id="clip0_20_472">
<rect width="40" height="40" fill="white" transform="translate(26.4995) rotate(39.9279)"/>
</clipPath>
</defs>
</svg>
