<svg width="58" height="58" viewBox="0 0 58 58" fill="none" xmlns="http://www.w3.org/2000/svg">
<g clip-path="url(#clip0_20_481)">
<path d="M47.5457 29.545C43.3192 34.5143 39.8217 37.4052 34.3129 39.0039C28.8041 40.6026 23.8545 37.9965 25.0737 35.5374C26.293 33.0783 31.1806 38.0775 33.4461 36.9157C33.8964 36.7035 34.2731 36.3617 34.5279 35.9341C34.7827 35.5066 34.904 35.0126 34.8765 34.5157C34.8489 34.0187 34.6736 33.5413 34.373 33.1445C34.0725 32.7478 33.6602 32.4497 33.1892 32.2887C31.3223 31.4499 28.2389 30.9948 30.732 29.7974C33.2251 28.6 37.8342 33.2749 39.7058 29.6209C41.5774 25.9669 34.9483 27.0474 34.5849 25.8717C34.2613 24.825 35.5525 24.456 37.3682 24.1044C40.6981 23.6834 42.3816 25.3619 44.0039 23.8987C45.6263 22.4355 45.4329 19.7634 42.7733 18.1655C40.1138 16.5677 38.0555 19.1049 36.9105 17.9618C35.7655 16.8188 38.8861 14.5991 37.6157 12.5361C37.3976 12.0985 37.0837 11.7156 36.6973 11.416C36.311 11.1164 35.8622 10.9077 35.3841 10.8053C34.906 10.7029 34.411 10.7095 33.9359 10.8247C33.4607 10.9398 33.0176 11.1605 32.6394 11.4704C32.2687 11.7924 31.9769 12.1952 31.7865 12.6478C31.5961 13.1004 31.5122 13.5907 31.5413 14.0809C29.0234 12.8929 24.7607 12.1614 19.4908 15.6118C15.0803 18.6661 11.88 23.1698 10.4465 28.3395C14.673 23.3702 18.1694 20.4806 23.6793 18.8806C29.1892 17.2806 34.1389 19.8868 32.9186 22.3472C31.6983 24.8076 26.8127 19.8057 24.5461 20.9688C24.0959 21.181 23.7193 21.5228 23.4645 21.9504C23.2096 22.378 23.0882 22.8719 23.1158 23.3689C23.1434 23.8659 23.3187 24.3433 23.6193 24.74C23.9199 25.1368 24.3321 25.4347 24.803 25.5958C26.6699 26.4346 29.7545 26.8885 27.2603 28.0871C24.7662 29.2858 20.1593 24.6107 18.2853 28.2649C16.4114 31.9191 23.0428 30.8383 23.4063 32.0141C23.7286 33.0597 22.4387 33.4298 20.6241 33.7802C17.2919 34.2014 15.6084 32.5228 13.9861 33.986C12.3637 35.4492 12.5581 38.1201 15.2166 39.7192C17.8751 41.3183 19.9357 38.7809 21.0794 39.9229C22.2231 41.0649 19.1039 43.2857 20.3743 45.3487C20.5924 45.7863 20.9063 46.1691 21.2926 46.4687C21.6789 46.7684 22.1278 46.977 22.6058 47.0794C23.0839 47.1818 23.5789 47.1752 24.0541 47.06C24.5292 46.9449 24.9723 46.7242 25.3505 46.4143C25.7211 46.0922 26.0128 45.6894 26.2032 45.2368C26.3936 44.7843 26.4776 44.294 26.4486 43.8039C28.9665 44.9919 33.2303 45.722 38.5002 42.2716C42.9109 39.2178 46.1116 34.7145 47.5457 29.545Z" fill="#482B11"/>
</g>
<defs>
<clipPath id="clip0_20_481">
<rect width="40" height="40" fill="white" transform="translate(26.4995 0.77417) rotate(39.9279)"/>
</clipPath>
</defs>
</svg>
