<svg width="40" height="40" viewBox="0 0 40 40" fill="none" xmlns="http://www.w3.org/2000/svg">
<path d="M20.0001 1.67502C17.5925 1.67502 15.2085 2.14923 12.9842 3.07056C10.7599 3.9919 8.73886 5.34232 7.03646 7.04473C5.33405 8.74713 3.98363 10.7682 3.06229 12.9925C2.14096 15.2168 1.66675 17.6008 1.66675 20.0084C1.66675 22.4159 2.14096 24.7999 3.06229 27.0242C3.98363 29.2485 5.33405 31.2696 7.03646 32.972C8.73886 34.6744 10.7599 36.0248 12.9842 36.9461C15.2085 37.8675 17.5925 38.3417 20.0001 38.3417C24.8624 38.3417 29.5255 36.4101 32.9637 32.972C36.4019 29.5338 38.3334 24.8707 38.3334 20.0084C38.3334 15.146 36.4019 10.4829 32.9637 7.04473C29.5255 3.60656 24.8624 1.67502 20.0001 1.67502ZM20.0001 35.2217C15.964 35.2186 12.0941 33.6139 9.24015 30.7599C6.38621 27.906 4.7815 24.0361 4.77841 20C4.78326 15.9662 6.38783 12.0991 9.24014 9.24675C12.0925 6.39443 15.9596 4.78988 19.9934 4.78503C24.0273 4.78944 27.8948 6.39385 30.7472 9.24626C33.5996 12.0987 35.204 15.9661 35.2084 20C35.204 24.0328 33.6005 27.8992 30.7495 30.7514C27.8986 33.6036 24.0328 35.2088 20.0001 35.215V35.2217Z" fill="white"/>
<path d="M19.9417 7.72501C16.7011 7.72898 13.5944 9.01807 11.3029 11.3095C9.01147 13.601 7.72238 16.7077 7.71841 19.9483C7.72194 23.1891 9.01088 26.2961 11.3024 28.5877C13.594 30.8792 16.701 32.1681 19.9417 32.1717C23.1831 32.1673 26.2902 30.877 28.5812 28.5841C30.8723 26.2912 32.16 23.183 32.1617 19.9417C32.156 16.7028 30.8666 13.5983 28.5761 11.3083C26.2855 9.01842 23.1806 7.72986 19.9417 7.72501ZM19.9417 29.0583C18.7447 29.0581 17.5595 28.8221 16.4537 28.3639C15.3479 27.9056 14.3432 27.234 13.4969 26.3875C12.6507 25.5409 11.9795 24.5359 11.5216 23.43C11.0637 22.324 10.8282 21.1387 10.8284 19.9417C10.8311 17.5273 11.7914 15.2125 13.4986 13.5052C15.2059 11.798 17.5207 10.8377 19.9351 10.835C22.3494 10.8381 24.6639 11.7985 26.371 13.5057C28.0782 15.2129 29.0387 17.5274 29.0417 19.9417C29.0391 22.355 28.0797 24.6687 26.3739 26.3758C24.6681 28.0829 22.355 29.0439 19.9417 29.0483V29.0583Z" fill="white"/>
<path d="M19.9584 13.7734C18.3171 13.7751 16.7435 14.4278 15.5828 15.5882C14.4221 16.7486 13.769 18.322 13.7668 19.9633C13.769 21.6042 14.4219 23.1772 15.5823 24.3373C16.7427 25.4974 18.3159 26.1499 19.9567 26.1517C21.5973 26.1495 23.1701 25.4968 24.3301 24.3367C25.4902 23.1767 26.1429 21.6039 26.1451 19.9633C26.1433 18.3228 25.491 16.7499 24.3313 15.5895C23.1716 14.4291 21.599 13.776 19.9584 13.7734ZM19.9584 23.0367C19.5544 23.0363 19.1544 22.9563 18.7813 22.8012C18.4082 22.6462 18.0692 22.4192 17.7839 22.1332C17.4985 21.8472 17.2722 21.5078 17.118 21.1343C16.9638 20.7609 16.8846 20.3607 16.8851 19.9567C16.8855 19.1413 17.2096 18.3594 17.7862 17.7828C18.3628 17.2062 19.1447 16.8821 19.9601 16.8817C20.7749 16.883 21.5559 17.2075 22.1318 17.784C22.7077 18.3605 23.0313 19.1419 23.0317 19.9567C23.0309 20.7715 22.7068 21.5527 22.1306 22.1289C21.5544 22.7051 20.7732 23.0292 19.9584 23.03V23.0367Z" fill="white"/>
</svg>
