<svg width="40" height="41" viewBox="0 0 40 41" fill="none" xmlns="http://www.w3.org/2000/svg">
<path d="M20.0001 2.44897C17.5925 2.44897 15.2085 2.92318 12.9842 3.84452C10.7599 4.76585 8.73886 6.11627 7.03646 7.81868C5.33405 9.52109 3.98363 11.5421 3.06229 13.7664C2.14096 15.9907 1.66675 18.3747 1.66675 20.7823C1.66675 23.1899 2.14096 25.5739 3.06229 27.7982C3.98363 30.0225 5.33405 32.0435 7.03646 33.7459C8.73886 35.4483 10.7599 36.7988 12.9842 37.7201C15.2085 38.6414 17.5925 39.1156 20.0001 39.1156C24.8624 39.1156 29.5255 37.1841 32.9637 33.7459C36.4019 30.3078 38.3334 25.6446 38.3334 20.7823C38.3334 15.92 36.4019 11.2568 32.9637 7.81868C29.5255 4.38052 24.8624 2.44897 20.0001 2.44897ZM20.0001 35.9956C15.964 35.9925 12.0941 34.3878 9.24015 31.5339C6.38621 28.68 4.7815 24.8101 4.77841 20.774C4.78326 16.7402 6.38783 12.873 9.24014 10.0207C12.0925 7.16839 15.9596 5.56383 19.9934 5.55898C24.0273 5.56339 27.8948 7.16781 30.7472 10.0202C33.5996 12.8726 35.204 16.7401 35.2084 20.774C35.204 24.8067 33.6005 28.6732 30.7495 31.5254C27.8986 34.3776 24.0328 35.9828 20.0001 35.989V35.9956Z" fill="#482B11"/>
<path d="M19.9417 8.49897C16.7011 8.50294 13.5944 9.79203 11.3029 12.0835C9.01147 14.3749 7.72238 17.4817 7.71841 20.7223C7.72194 23.963 9.01088 27.0701 11.3024 29.3616C13.594 31.6532 16.701 32.9421 19.9417 32.9456C23.1831 32.9412 26.2902 31.651 28.5812 29.3581C30.8723 27.0652 32.16 23.957 32.1617 20.7156C32.156 17.4768 30.8666 14.3722 28.5761 12.0823C26.2855 9.79238 23.1806 8.50382 19.9417 8.49897ZM19.9417 29.8323C18.7447 29.8321 17.5595 29.5961 16.4537 29.1378C15.3479 28.6796 14.3432 28.008 13.4969 27.1614C12.6507 26.3148 11.9795 25.3099 11.5216 24.2039C11.0637 23.098 10.8282 21.9126 10.8284 20.7156C10.8311 18.3012 11.7914 15.9864 13.4986 14.2792C15.2059 12.5719 17.5207 11.6116 19.9351 11.609C22.3494 11.6121 24.6639 12.5725 26.371 14.2797C28.0782 15.9868 29.0387 18.3013 29.0417 20.7156C29.0391 23.1289 28.0797 25.4427 26.3739 27.1497C24.6681 28.8568 22.355 29.8179 19.9417 29.8223V29.8323Z" fill="#482B11"/>
<path d="M19.9584 14.5473C18.3171 14.5491 16.7435 15.2018 15.5828 16.3622C14.4221 17.5226 13.769 19.096 13.7668 20.7373C13.769 22.3782 14.4219 23.9512 15.5823 25.1113C16.7427 26.2714 18.3159 26.9239 19.9567 26.9256C21.5973 26.9234 23.1701 26.2707 24.3301 25.1107C25.4902 23.9506 26.1429 22.3779 26.1451 20.7373C26.1433 19.0967 25.491 17.5238 24.3313 16.3635C23.1716 15.2031 21.599 14.55 19.9584 14.5473ZM19.9584 23.8107C19.5544 23.8102 19.1544 23.7302 18.7813 23.5752C18.4082 23.4202 18.0692 23.1932 17.7839 22.9072C17.4985 22.6212 17.2722 22.2817 17.118 21.9083C16.9638 21.5348 16.8846 21.1347 16.8851 20.7306C16.8855 19.9152 17.2096 19.1334 17.7862 18.5568C18.3628 17.9802 19.1447 17.6561 19.9601 17.6556C20.7749 17.657 21.5559 17.9815 22.1318 18.558C22.7077 19.1345 23.0313 19.9158 23.0317 20.7306C23.0309 21.5455 22.7068 22.3267 22.1306 22.9029C21.5544 23.479 20.7732 23.8031 19.9584 23.804V23.8107Z" fill="#482B11"/>
</svg>
